<svg viewBox="0 0 330 200" xmlns="http://www.w3.org/2000/svg"><g><g><g><g><g><line x1="41.171875" y1="177" x2="36.171875" y2="177" style="visibility: inherit;" fill="rgb(0, 0, 0)" stroke="rgb(204, 204, 204)" stroke-width="1px"></line><line x1="41.171875" y1="154.875" x2="36.171875" y2="154.875" style="visibility: inherit;" fill="rgb(0, 0, 0)" stroke="rgb(204, 204, 204)" stroke-width="1px"></line><line x1="41.171875" y1="132.75" x2="36.171875" y2="132.75" style="visibility: inherit;" fill="rgb(0, 0, 0)" stroke="rgb(204, 204, 204)" stroke-width="1px"></line><line x1="41.171875" y1="110.625" x2="36.171875" y2="110.625" style="visibility: inherit;" fill="rgb(0, 0, 0)" stroke="rgb(204, 204, 204)" stroke-width="1px"></line><line x1="41.171875" y1="88.5" x2="36.171875" y2="88.5" style="visibility: inherit;" fill="rgb(0, 0, 0)" stroke="rgb(204, 204, 204)" stroke-width="1px"></line><line x1="41.171875" y1="66.375" x2="36.171875" y2="66.375" style="visibility: inherit;" fill="rgb(0, 0, 0)" stroke="rgb(204, 204, 204)" stroke-width="1px"></line><line x1="41.171875" y1="44.25" x2="36.171875" y2="44.25" style="visibility: inherit;" fill="rgb(0, 0, 0)" stroke="rgb(204, 204, 204)" stroke-width="1px"></line><line x1="41.171875" y1="22.125" x2="36.171875" y2="22.125" style="visibility: inherit;" fill="rgb(0, 0, 0)" stroke="rgb(204, 204, 204)" stroke-width="1px"></line><line x1="41.171875" y1="0" x2="36.171875" y2="0" style="visibility: inherit;" fill="rgb(0, 0, 0)" stroke="rgb(204, 204, 204)" stroke-width="1px"></line></g><g transform="translate(31.171875, 0)"><text x="0" y="177" dx="0em" dy="0.3em" style="text-anchor: end; visibility: hidden; font-family: Roboto, sans-serif; font-size: 12px; font-weight: 200;" fill="rgb(255, 255, 255)" stroke="none" stroke-width="1px">-10</text><text x="0" y="154.875" dx="0em" dy="0.3em" style="text-anchor: end; visibility: inherit; font-family: Roboto, sans-serif; font-size: 12px; font-weight: 200;" fill="rgb(255, 255, 255)" stroke="none" stroke-width="1px">-5</text><text x="0" y="132.75" dx="0em" dy="0.3em" style="text-anchor: end; visibility: hidden; font-family: Roboto, sans-serif; font-size: 12px; font-weight: 200;" fill="rgb(255, 255, 255)" stroke="none" stroke-width="1px">0</text><text x="0" y="110.625" dx="0em" dy="0.3em" style="text-anchor: end; visibility: inherit; font-family: Roboto, sans-serif; font-size: 12px; font-weight: 200;" fill="rgb(255, 255, 255)" stroke="none" stroke-width="1px">5</text><text x="0" y="88.5" dx="0em" dy="0.3em" style="text-anchor: end; visibility: hidden; font-family: Roboto, sans-serif; font-size: 12px; font-weight: 200;" fill="rgb(255, 255, 255)" stroke="none" stroke-width="1px">10</text><text x="0" y="66.375" dx="0em" dy="0.3em" style="text-anchor: end; visibility: inherit; font-family: Roboto, sans-serif; font-size: 12px; font-weight: 200;" fill="rgb(255, 255, 255)" stroke="none" stroke-width="1px">15</text><text x="0" y="44.25" dx="0em" dy="0.3em" style="text-anchor: end; visibility: hidden; font-family: Roboto, sans-serif; font-size: 12px; font-weight: 200;" fill="rgb(255, 255, 255)" stroke="none" stroke-width="1px">20</text><text x="0" y="22.125" dx="0em" dy="0.3em" style="text-anchor: end; visibility: inherit; font-family: Roboto, sans-serif; font-size: 12px; font-weight: 200;" fill="rgb(255, 255, 255)" stroke="none" stroke-width="1px">25</text><text x="0" y="0" dx="0em" dy="0.3em" style="text-anchor: end; visibility: hidden; font-family: Roboto, sans-serif; font-size: 12px; font-weight: 200;" fill="rgb(255, 255, 255)" stroke="none" stroke-width="1px">30</text></g><line x1="41.171875" y1="0" x2="41.171875" y2="177" fill="rgb(0, 0, 0)" stroke="rgb(204, 204, 204)" stroke-width="1px"></line></g></g><g transform="translate(41, 0)" clip-path="url(#clip_0)"><clipPath id="clip_0"><rect width="288" height="177"></rect></clipPath><g><g><g><line x1="0" y1="0" x2="0" y2="177" fill="rgb(0, 0, 0)" stroke="rgb(189, 189, 189)" stroke-width="1px" opacity="0.25"></line><line x1="24.069010416666664" y1="0" x2="24.069010416666664" y2="177" fill="rgb(0, 0, 0)" stroke="rgb(189, 189, 189)" stroke-width="1px" opacity="0.25"></line><line x1="48.13802083333333" y1="0" x2="48.13802083333333" y2="177" fill="rgb(0, 0, 0)" stroke="rgb(189, 189, 189)" stroke-width="1px" opacity="0.25"></line><line x1="72.20703125" y1="0" x2="72.20703125" y2="177" fill="rgb(0, 0, 0)" stroke="rgb(189, 189, 189)" stroke-width="1px" opacity="0.25"></line><line x1="96.27604166666666" y1="0" x2="96.27604166666666" y2="177" fill="rgb(0, 0, 0)" stroke="rgb(189, 189, 189)" stroke-width="1px" opacity="0.25"></line><line x1="120.34505208333334" y1="0" x2="120.34505208333334" y2="177" fill="rgb(0, 0, 0)" stroke="rgb(189, 189, 189)" stroke-width="1px" opacity="0.25"></line><line x1="144.4140625" y1="0" x2="144.4140625" y2="177" fill="rgb(0, 0, 0)" stroke="rgb(189, 189, 189)" stroke-width="1px" opacity="0.25"></line><line x1="168.48307291666669" y1="0" x2="168.48307291666669" y2="177" fill="rgb(0, 0, 0)" stroke="rgb(189, 189, 189)" stroke-width="1px" opacity="0.25"></line><line x1="192.55208333333331" y1="0" x2="192.55208333333331" y2="177" fill="rgb(0, 0, 0)" stroke="rgb(189, 189, 189)" stroke-width="1px" opacity="0.25"></line><line x1="216.62109375" y1="0" x2="216.62109375" y2="177" fill="rgb(0, 0, 0)" stroke="rgb(189, 189, 189)" stroke-width="1px" opacity="0.25"></line><line x1="240.69010416666669" y1="0" x2="240.69010416666669" y2="177" fill="rgb(0, 0, 0)" stroke="rgb(189, 189, 189)" stroke-width="1px" opacity="0.25"></line><line x1="264.7591145833333" y1="0" x2="264.7591145833333" y2="177" fill="rgb(0, 0, 0)" stroke="rgb(189, 189, 189)" stroke-width="1px" opacity="0.25"></line><line x1="288.828125" y1="0" x2="288.828125" y2="177" fill="rgb(0, 0, 0)" stroke="rgb(189, 189, 189)" stroke-width="1px" opacity="0.25"></line></g><g><line x1="0" y1="177" x2="288.828125" y2="177" fill="rgb(0, 0, 0)" stroke="rgb(189, 189, 189)" stroke-width="1px" opacity="0.25"></line><line x1="0" y1="154.875" x2="288.828125" y2="154.875" fill="rgb(0, 0, 0)" stroke="rgb(189, 189, 189)" stroke-width="1px" opacity="0.25"></line><line x1="0" y1="132.75" x2="288.828125" y2="132.75" fill="rgb(0, 0, 0)" stroke="rgb(189, 189, 189)" stroke-width="1px" opacity="0.25"></line><line x1="0" y1="110.625" x2="288.828125" y2="110.625" fill="rgb(0, 0, 0)" stroke="rgb(189, 189, 189)" stroke-width="1px" opacity="0.25"></line><line x1="0" y1="88.5" x2="288.828125" y2="88.5" fill="rgb(0, 0, 0)" stroke="rgb(189, 189, 189)" stroke-width="1px" opacity="0.25"></line><line x1="0" y1="66.375" x2="288.828125" y2="66.375" fill="rgb(0, 0, 0)" stroke="rgb(189, 189, 189)" stroke-width="1px" opacity="0.25"></line><line x1="0" y1="44.25" x2="288.828125" y2="44.25" fill="rgb(0, 0, 0)" stroke="rgb(189, 189, 189)" stroke-width="1px" opacity="0.25"></line><line x1="0" y1="22.125" x2="288.828125" y2="22.125" fill="rgb(0, 0, 0)" stroke="rgb(189, 189, 189)" stroke-width="1px" opacity="0.25"></line><line x1="0" y1="0" x2="288.828125" y2="0" fill="rgb(0, 0, 0)" stroke="rgb(189, 189, 189)" stroke-width="1px" opacity="0.25"></line></g></g></g><g><g><line x1="0" y1="132.75" x2="288.828125" y2="132.75" fill="rgb(0, 0, 0)" stroke="rgb(153, 153, 153)" stroke-width="1.5px"></line></g></g><g><g><line x1="24.069010416666664" y1="0" x2="24.069010416666664" y2="177" fill="rgb(0, 0, 0)" stroke="rgb(153, 153, 153)" stroke-width="1.5px"></line></g></g><g><g><g><g><g><path stroke="rgb(255, 112, 67)" stroke-width="2px" d="M24.550390625000002,111.90870137214661L25.031770833333333,113.05018330671658L25.513151041666667,116.6985669395245L25.994531249999998,104.91666335192629L26.475911458333332,111.0338690696467L26.957291666666666,102.91401311275108L27.438671875,112.74091415415602L27.92005208333333,120.27183468556697L28.401432291666666,109.26395635711239L28.8828125,111.48730862468592L29.364192708333334,111.33698713987155L29.845572916666665,90.81500091895106L30.326953125,101.15032705579969L30.808333333333334,94.19412914683224L31.289713541666668,103.75325905018357L31.77109375,107.94538340447532L32.25247395833333,102.02689651251299L32.73385416666667,82.25710051023795L33.215234375,89.97877565771431L33.696614583333336,89.33354367239825L34.17799479166666,92.96488823503248L34.659375,88.95099624598495L35.14075520833334,90.31748575831149L35.622135416666666,104.42298192651614L36.103515625,92.0477319320398L36.584895833333334,89.83152044240379L37.06627604166666,98.50373849074293L37.54765625,102.13248542639076L38.02903645833333,102.82832957720554L38.510416666666664,94.69264366922278L38.991796875000006,98.03207530717737L39.47317708333333,104.83967806752706L39.95455729166667,110.02999945736724L40.4359375,97.54456338197356L40.917317708333336,69.6660606117685L41.39869791666667,82.55761762563297L41.880078125,100.55219603530107L42.36145833333333,99.86029372213184L42.84283854166667,106.79464857222641L43.32421875,94.99412562434438L43.805598958333334,103.24479440575533L44.28697916666666,103.8933214977619L44.768359375,112.55981574517673L45.24973958333334,116.59265063259568L45.731119791666664,107.64295013186789L46.2125,103.27738559469753L46.69388020833333,113.76991650137165L47.17526041666667,106.76691872619543L47.656640625,98.32870892525209L48.13802083333333,104.45619144855763L48.61940104166667,97.1104897004948L49.100781250000004,159.10902306446997L49.58216145833333,134.78113835070343L50.063541666666666,118.27537738153175L50.544921875,112.00393884732792L51.026302083333334,112.24091994488381L51.50768229166667,112.74158920173099L51.989062499999996,87.67584389374562L52.47044270833334,98.92069659123L52.951822916666664,92.27544679526815L53.433203125,96.28608310958732L53.91458333333333,96.30054487633186L54.39596354166667,100.58839676083008L54.87734375,94.0195733271287L55.358723958333336,62.902231659163725L55.84010416666666,82.35052504964958L56.321484375000004,76.69434835599687L56.80286458333333,90.93118907927571L57.284244791666666,89.88287619159229L57.765625,101.4485194567575L58.247005208333334,84.69789860444432L58.72838541666667,81.2953949938547L59.209765624999996,95.21795348826782L59.69114583333333,64.3373364616231L60.17252604166667,83.54235624591202L60.65390625,69.17196459015527L61.13528645833333,74.31081458783476L61.61666666666667,73.55187671836927L62.098046875,77.32434491470772L62.579427083333336,73.40803765180694L63.06080729166666,77.94153716041689L63.5421875,82.93286362498203L64.02356770833333,87.38897295018852L64.50494791666667,77.88774559003224L64.986328125,78.2809813883613L65.46770833333333,84.44410746298595L65.94908854166667,90.72050478697258L66.43046875,71.10304527207603L66.91184895833334,51.38328412417154L67.39322916666667,23.09587506609396L67.87460937499999,54.764413227645484L68.35598958333333,9.702683098455427L68.83736979166667,40.41715864554071L69.31875,64.43234313879682L69.80013020833333,66.7299324638291L70.28151041666668,88.57676067086472L70.762890625,57.74079973958912L71.24427083333333,51.27898047460123L71.72565104166667,80.13136263450717L72.20703125,75.05723742023532L72.68841145833333,83.43508592998904L73.16979166666667,94.62637668185337L73.651171875,85.80079780331494L74.13255208333332,67.57430125892849L74.61393229166667,77.29526493897082L75.0953125,67.41252042866768L75.57669270833333,75.49392244692761L76.05807291666666,58.10735867197402L76.53945312500001,74.56947148643083L77.02083333333333,83.58717720325315L77.50221354166666,71.83018986787134L77.98359375000001,35.51545249743269L78.46497395833333,39.71013798313594L78.94635416666667,61.63858160476847L79.427734375,53.57543340098963L79.90911458333333,70.54056629021748L80.39049479166667,96.77176697480486L80.871875,84.0602041239199L81.35325520833334,93.98614432907901L81.83463541666667,79.9556908612522L82.31601562499999,96.37788320486723L82.79739583333334,77.06165963014571L83.27877604166666,77.22980493676185L83.76015625,81.67242542560375L84.24153645833334,73.86465758061676L84.72291666666666,68.31149399215742L85.204296875,62.66390586790459L85.68567708333335,69.24393067130681L86.16705729166667,81.54203538888972L86.6484375,65.97376251751783L87.12981770833333,75.90214864236644L87.61119791666667,71.15692451588122L88.092578125,47.73460342095402L88.57395833333332,50.5335684243838L89.05533854166667,58.403938439887355L89.53671875,68.68885385461493L90.01809895833333,70.13210522622616L90.49947916666667,81.43395411912951L90.980859375,82.98740288447979L91.46223958333333,95.64717409792523L91.94361979166668,81.18300870036961L92.425,69.04030811275803L92.90638020833333,72.48734258717833L93.38776041666667,69.03708681804962L93.869140625,50.82016994075523L94.35052083333333,45.16617162959842L94.83190104166665,66.52312466175383L95.31328125,52.577744516400664L95.79466145833334,52.167866277343144L96.27604166666666,64.27334292164502L96.757421875,59.53481465030784L97.23880208333334,70.84263353418625L97.72018229166666,74.62244041994978L98.20156250000001,86.78548916058881L98.68294270833333,88.49934338016135L99.16432291666666,84.71619977199434L99.645703125,66.42905022685073L100.12708333333333,78.43623117926712L100.60846354166667,90.84750200681337L101.08984375,92.81036919545298L101.57122395833333,101.00691941422792L102.05260416666667,90.8264404265474L102.53398437499999,86.2422263579127L103.01536458333334,90.13303140805122L103.49674479166667,74.55011739222132L103.97812499999999,71.59568271313182L104.45950520833334,78.26646497337434L104.94088541666667,60.46273091905841L105.422265625,72.58091151309934L105.90364583333333,76.89509257362181L106.38502604166668,82.58672082329798L106.86640625,59.17091832540657L107.34778645833333,69.89989756706841L107.82916666666667,81.0904237600651L108.310546875,85.46908111643621L108.79192708333333,75.77450343951423L109.27330729166667,85.55672959837175L109.7546875,108.66644225786622L110.23606770833332,101.53444732709863L110.71744791666667,87.06350747261136L111.198828125,73.89992061355484L111.68020833333333,81.59390120211997L112.16158854166666,84.68461440866758L112.64296875000001,103.15952273441114L113.12434895833333,99.4911679430362L113.60572916666666,94.32612994263405L114.08710937500001,92.82714035530203L114.56848958333333,93.08193183699171L115.04986979166667,76.7006019618439L115.53125,80.99742982095435L116.01263020833333,87.2947973088217L116.49401041666667,86.37221730703067L116.975390625,90.72666306772898L117.45677083333334,70.03117890789345L117.93815104166667,85.8904768136217L118.41953124999999,93.74364865620402L118.90091145833334,95.66309679705023L119.38229166666666,101.21418558365956L119.863671875,92.97692208765737L120.34505208333334,102.03896040612545L120.82643229166666,95.36413510907195L121.3078125,85.59625585787985L121.78919270833335,99.4056775713868L122.27057291666667,84.1087899959655L122.751953125,91.5022548214876L123.23333333333333,83.96108771904832L123.71471354166667,77.19815395873123L124.19609375,100.00803007784187L124.67747395833332,105.8800158043644L125.15885416666667,105.78810156554077L125.640234375,64.60393220642734L126.12161458333333,84.33217500325036L126.60299479166667,81.53089696957886L127.084375,95.86768645919334L127.56575520833333,92.3734512255066L128.04713541666666,101.74580986321648L128.528515625,97.11646603672143L129.00989583333333,88.61510663551589L129.49127604166665,83.21693471236418L129.97265625,85.50924173103985L130.45403645833332,74.99571580329918L130.93541666666667,84.38979306138988L131.41679687500002,87.1381468930715L131.89817708333334,86.96972205607591L132.37955729166666,93.95168855002218L132.8609375,96.99464135319394L133.34231770833333,94.78598486959548L133.82369791666667,112.3022305562637L134.305078125,101.36782232977745L134.78645833333334,104.42320514368897L135.26783854166666,87.01089176772724L135.74921874999998,88.86963360140597L136.23059895833333,75.17422279317034L136.71197916666665,91.00048577769796L137.193359375,100.84739763685583L137.67473958333335,97.92280270130063L138.15611979166667,104.23851695988384L138.6375,111.72241359348016L139.11888020833334,116.93742308087084L139.60026041666666,116.00826014412914L140.081640625,108.17381511342863L140.56302083333335,105.39046915592417L141.04440104166667,103.01295232007655L141.52578125,100.34063096794674L142.00716145833331,95.90289549246899L142.48854166666666,95.4181301604361L142.969921875,100.97630039146553L143.45130208333333,87.67282307401986L143.93268229166668,89.6671067259747L144.4140625,94.03117860298434L144.89544270833335,87.54710908254312L145.37682291666667,89.57841750483365L145.858203125,76.31616814908924L146.33958333333334,84.73031392044457L146.82096354166666,125.88184698725576L147.30234375,111.97389651406343L147.78372395833335,111.223092544825L148.26510416666665,114.19123156250475L148.746484375,100.48010835293553L149.22786458333334,92.19058103795506L149.70924479166666,91.65303150261528L150.190625,94.37035166907734L150.67200520833333,99.80123350877696L151.15338541666665,99.31841795736737L151.634765625,104.5877057732637L152.11614583333332,98.3146035645548L152.59752604166667,96.75122041109911L153.07890625000002,89.31597514442946L153.5602864583333,96.08044505939077L154.04166666666666,96.6610944573442L154.523046875,100.47891670714662L155.00442708333333,93.71426091453478L155.48580729166667,126.22208812062726L155.96718750000002,108.37183822254526L156.44856770833331,106.55635422743498L156.92994791666666,106.42771361528655L157.411328125,104.44352805962187L157.89270833333333,108.61644913846067L158.37408854166668,110.7920519750869L158.85546875,111.6166439245398L159.33684895833332,106.72177227056956L159.81822916666667,102.40972041747246L160.29960937500002,102.1543264675628L160.78098958333334,91.8183584946125L161.26236979166666,77.24247061411641L161.74375,91.19628908894909L162.22513020833333,89.52782121680501L162.70651041666667,83.24285656496224L163.187890625,87.43992907438471L163.66927083333334,93.02868014870592L164.15065104166666,106.34238128798422L164.63203124999998,101.14763251585865L165.11341145833333,104.81317248371627L165.59479166666668,106.03319608998251L166.076171875,112.23852565530083L166.55755208333332,115.8835330107471L167.03893229166667,123.02018813980602L167.5203125,114.84754560867869L168.00169270833334,109.85432700367251L168.48307291666669,114.8946008238929L168.96445312499998,113.87582887748863L169.44583333333333,112.49882436314178L169.92721354166667,141.50902176478635L170.40859375,126.58945323330029L170.88997395833334,123.3896934490738L171.3713541666667,109.60951686237463L171.85273437499998,119.15718780428098L172.33411458333333,101.76211779255709L172.81549479166668,107.69766814208883L173.296875,103.55384199858062L173.77825520833335,120.52201795666163L174.25963541666667,108.16127124327124L174.741015625,111.39669271136916L175.22239583333334,111.75101521522018L175.70377604166666,97.66293704269877L176.18515625,101.32900026186189L176.66653645833335,104.09402906730368L177.14791666666665,105.80843942374912L177.629296875,102.53153865981227L178.11067708333334,103.01181319350022L178.59205729166666,107.53310071210132L179.0734375,100.22916257251852L179.55481770833333,111.35135990289494L180.03619791666665,115.47594797539321L180.517578125,103.13047092600331L180.99895833333335,123.14968214806399L181.48033854166667,115.06027267230824L181.96171875,99.84335258367773L182.44309895833334,101.02966572187614L182.92447916666666,108.58968234474808L183.405859375,106.32214054652894L183.88723958333335,106.84149378772332L184.36861979166665,115.47201618171867L184.85,111.49724787343521L185.33138020833334,105.37037111047252L185.81276041666666,117.82019391784502L186.294140625,109.66830358636999L186.77552083333333,110.68835450341595L187.25690104166665,108.97439674088433L187.73828125,108.33238817989543L188.21966145833332,108.96491696185677L188.70104166666667,112.77045056937664L189.18242187500002,113.92491149372765L189.6638020833333,113.13189246772785L190.14518229166666,114.86182413551795L190.6265625,114.53427020318588L191.10794270833333,108.39712076720213L191.58932291666667,104.84945942347433L192.07070312500002,106.10447945915298L192.55208333333331,110.84047194052798L193.03346354166666,114.25310637234477L193.51484375,114.06811282860146L193.99622395833333,105.3521524036775L194.47760416666668,106.87481523616924L194.958984375,116.00257986068168L195.44036458333332,104.56960591136641L195.92174479166667,104.96094656655625L196.40312500000002,108.21692669630433L196.88450520833334,106.57653478528222L197.36588541666666,114.03171018163427L197.847265625,124.0562007054054L198.32864583333333,121.01451957950259L198.81002604166667,121.26198526049193L199.29140625,113.37099675742047L199.77278645833334,116.11443039651516L200.25416666666666,120.81654184928855L200.73554687499998,115.98057598004115L201.21692708333333,118.88107496886839L201.69830729166668,120.20534696242851L202.1796875,107.34598741841614L202.66106770833332,113.7060202045008L203.14244791666667,108.65153668206618L203.623828125,112.0304786816955L204.10520833333334,113.28671848974997L204.58658854166669,112.59551215768303L205.06796874999998,110.72504636428587L205.54934895833333,115.17389971152225L206.03072916666667,118.82024124053804L206.512109375,114.23345364104856L206.99348958333334,115.19293078889929L207.4748697916667,115.44464043610387L207.95624999999998,113.83140189158658L208.43763020833333,117.41477198213394L208.91901041666668,120.09102320723204L209.400390625,120.96397054368151L209.88177083333335,119.06518002724567L210.36315104166667,118.27808662177904L210.84453125,116.73528030113195L211.32591145833334,118.72373912979965L211.80729166666666,118.45009772019087L212.288671875,116.01391363948113L212.77005208333335,119.78109521484961L213.25143229166665,120.74825773943158L213.7328125,117.61768975726919L214.21419270833334,118.16097229597777L214.69557291666666,119.26925839994722L215.176953125,119.6608653749181L215.65833333333333,123.39816615320248L216.13971354166665,108.28099328524063L216.62109375,114.94104227675798L217.10247395833335,117.2342516774753L217.58385416666667,110.1704251441166L218.065234375,108.68222351335585L218.54661458333334,121.85883914549217L219.02799479166666,121.80200408548505L219.509375,117.64439670198763L219.99075520833335,119.69061845443736L220.47213541666665,123.78091464263493L220.953515625,123.64227444557034L221.43489583333334,124.52609608159172L221.91627604166666,124.18543716661641L222.39765625,121.90815406516468L222.87903645833333,118.79006553767765L223.36041666666665,117.86530897954712L223.841796875,123.83099166452642L224.32317708333332,123.41258275092711L224.80455729166667,122.41031770359359L225.28593750000002,118.29497519492568L225.7673177083333,121.13201269479947L226.24869791666666,118.37257910404122L226.730078125,121.44103290545505L227.21145833333333,126.46466502811275L227.69283854166667,122.04544815084994L228.17421875000002,126.5767302960963L228.65559895833331,128.07947568934011L229.13697916666666,126.61158664942786L229.618359375,124.39140859769391L230.09973958333333,116.71252739882412L230.58111979166668,117.94023751677388L231.0625,121.71356775651901L231.54388020833332,123.67405887400147L232.02526041666667,118.11784421703457L232.50664062500002,124.5332516206935L232.98802083333334,124.84874473597453L233.46940104166666,124.86424243298157L233.95078125,120.76690254954316L234.43216145833333,122.70443927770313L234.91354166666667,123.50515141720514L235.394921875,121.3003552698921L235.87630208333334,125.00372714009359L236.35768229166666,126.65570134571982L236.83906249999998,128.52382819018501L237.32044270833333,126.71527844534269L237.80182291666668,123.27118229207355L238.283203125,122.79693882239427L238.76458333333332,122.74142944918498L239.24596354166667,125.50868249223795L239.72734375,127.16895892488908L240.20872395833334,129.46276114365267L240.69010416666669,129.2500393486653L241.17148437499998,128.00628416483366L241.65286458333333,127.85287949572658L242.13424479166667,127.16136445883576L242.615625,127.05040341907977L243.09700520833334,127.90263586893063L243.5783854166667,127.01021057638025L244.05976562499998,127.35253423593032L244.54114583333333,128.64353366109523L245.02252604166668,127.99510291815899L245.50390625,128.4567342322705L245.98528645833335,127.87812408072732L246.46666666666667,127.9390487775346L246.948046875,127.0552499345793L247.42942708333334,127.55538411801369L247.91080729166666,127.22649128204012L248.3921875,125.66523941748821L248.87356770833335,126.84668225946609L249.35494791666665,127.96491171225463L249.836328125,128.64916940193956L250.31770833333334,126.72966070117425L250.79908854166666,130.68046946479222L251.28046875,129.36781349048167L251.76184895833333,129.48883147447248L252.24322916666665,128.71360053057953L252.724609375,128.41435638373883L253.20598958333335,129.4910652956668L253.68736979166667,130.22252346434624L254.16875,128.9936519434116L254.65013020833334,127.90731029568437L255.13151041666666,128.85703225674592L255.612890625,130.05998284212447L256.0942708333333,130.12028948821276L256.5756510416667,130.24121110596465L257.05703125,129.99586777267558L257.53841145833337,130.31904646449203L258.01979166666666,130.6626115747351L258.501171875,130.3962874252461L258.9825520833333,130.6860962370976L259.46393229166665,131.2099622372499L259.9453125,131.9402316166239L260.4266927083333,131.7146168530491L260.90807291666664,131.71164803063232L261.389453125,131.5592894689183L261.87083333333334,131.7440241865573L262.3522135416667,131.77622463930777L262.83359375000003,131.96392724185353L263.3149739583333,132.02365673749935L263.7963541666667,132.09564129412283L264.277734375,132.2577613981238L264.7591145833333,132.42598451272974" style="fill: none;" fill="none"></path></g></g></g></g><g opacity="0.2"><g><g><g><path stroke="rgb(255, 112, 67)" stroke-width="2px" d="M24.550390625000002,111.90870137214661L25.031770833333333,113.64831984043121L25.513151041666667,119.61207854747772L25.994531249999998,93.81276326179504L26.475911458333332,117.26024124026299L26.957291666666666,94.32847366333009L27.438671875,123.33482476472854L27.92005208333333,128.47224850505592L28.401432291666666,97.21491751670838L28.8828125,113.92757470607758L29.364192708333334,111.1717654466629L29.845572916666665,68.24204585552216L30.326953125,112.52299540042877L30.808333333333334,86.5381854057312L31.289713541666668,114.27509665489197L31.77109375,112.55995845794678L32.25247395833333,95.51179790496826L32.73385416666667,60.49408006668091L33.215234375,98.47903171777726L33.696614583333336,88.62324957847595L34.17799479166666,96.96240906715393L34.659375,84.53234767913818L35.14075520833334,91.82177152633666L35.622135416666666,119.95087562799453L36.103515625,78.42456007003784L36.584895833333334,87.39182567596436L37.06627604166666,108.05046544075013L37.54765625,106.12715631723404L38.02903645833333,103.59434287548065L38.510416666666664,85.73655252456665L38.991796875000006,101.70825634002686L39.47317708333333,112.3337617635727L39.95455729166667,115.743714594841L40.4359375,83.80009174346924L40.917317708333336,38.976280260086064L41.39869791666667,96.7491635799408L41.880078125,120.3613537788391L42.36145833333333,99.09861974716186L42.84283854166667,114.42826609611511L43.32421875,82.00363397598267L43.805598958333334,112.32746340036392L44.28697916666666,104.60724627971649L44.768359375,122.10024218559265L45.24973958333334,121.03215794563293L45.731119791666664,97.79075882434846L46.2125,98.47159606218338L46.69388020833333,125.32051775157451L47.17526041666667,99.05773630142211L47.656640625,89.03958721160889L48.13802083333333,111.20157136917113L48.61940104166667,89.02404491901397L49.100781250000004,227.3595093727112L49.58216145833333,108.00002156496048L50.063541666666666,100.10516992807389L50.544921875,105.10008634328842L51.026302083333334,112.50179829597472L51.50768229166667,113.29274611473083L51.989062499999996,60.08246040344238L52.47044270833334,111.29948401451111L52.951822916666664,84.96008777618408L53.433203125,100.70115333795547L53.91458333333333,96.31646497249604L54.39596354166667,105.30863707065582L54.87734375,86.78834753036499L55.358723958333336,28.64700679779053L55.84010416666666,103.75999088287354L56.321484375000004,70.46780090332031L56.80286458333333,106.60367760658265L57.284244791666666,88.7288510799408L57.765625,114.18044607639312L58.247005208333334,66.25813951492309L58.72838541666667,77.54978177547456L59.209765624999996,110.54446746110916L59.69114583333333,30.342707633972168L60.17252604166667,104.68401668071748L60.65390625,53.35245780944825L61.13528645833333,79.96786794662476L61.61666666666667,72.71640729904175L62.098046875,81.47723007202148L62.579427083333336,69.09680864810944L63.06080729166666,82.93219628334045L63.5421875,88.42751712799073L64.02356770833333,92.29443783760071L64.50494791666667,67.42841126918792L64.986328125,78.713871216774L65.46770833333333,91.22872524261474L65.94908854166667,97.62981612682343L66.43046875,49.507354545593266L66.91184895833334,29.674975633621216L67.39322916666667,-8.04404582977294L67.87460937499999,89.62641742229461L68.35598958333333,-39.9030870437622L68.83736979166667,74.22889223098754L69.31875,90.86922690868379L69.80013020833333,69.25921146869659L70.28151041666668,112.62663037776947L70.762890625,23.795330142974862L71.24427083333333,44.16554918289184L71.72565104166667,111.89322870969772L72.20703125,69.471435713768L72.68841145833333,92.65775949954987L73.16979166666667,106.94620095491409L73.651171875,76.08524458408355L74.13255208333332,47.509838676452645L74.61393229166667,87.99649386405945L75.0953125,56.533196640014644L75.57669270833333,84.39025576114655L76.05807291666666,38.967527961730966L76.53945312500001,92.69162929058075L77.02083333333333,93.51423139572144L77.50221354166666,58.88762397766113L77.98359375000001,-4.461275196075447L78.46497395833333,44.3278169631958L78.94635416666667,85.77829685211181L79.427734375,44.69919462203979L79.90911458333333,89.21646888256073L80.39049479166667,125.64813075363635L80.871875,70.06680300235747L81.35325520833334,104.91301968097686L81.83463541666667,64.51040174961089L82.31601562499999,114.45609494447707L82.79739583333334,55.79758157730102L83.27877604166666,77.41490607261657L83.76015625,86.56304125785827L84.24153645833334,65.26955180168152L84.72291666666666,62.19834752082824L85.204296875,56.446813058853145L85.68567708333335,76.48748738765717L86.16705729166667,95.08028512001037L86.6484375,48.83557977676391L87.12981770833333,86.83171656131744L87.61119791666667,65.93319039344787L88.092578125,21.95036759376525L88.57395833333332,53.614781999588004L89.05533854166667,67.06795921325683L89.53671875,80.01090359687805L90.01809895833333,71.72089455127717L90.49947916666667,93.87548525333405L90.980859375,84.6975019454956L91.46223958333333,109.5835608959198L91.94361979166668,65.26027200222016L92.425,55.67313351631164L92.90638020833333,76.28197717666626L93.38776041666667,65.23890609741211L93.869140625,30.766253042221074L94.35052083333333,38.94202222824096L94.83190104166665,90.03372001647949L95.31328125,37.226107549667354L95.79466145833334,51.71665577888489L96.27604166666666,77.59953989982604L96.757421875,54.31845159530639L97.23880208333334,83.29073667526245L97.72018229166666,78.78340430259705L98.20156250000001,100.17506382465363L98.68294270833333,90.38602323532105L99.16432291666666,80.55156269073485L99.645703125,46.297818374633785L100.12708333333333,91.6542202949524L100.60846354166667,104.51032955646515L101.08984375,94.97117257118225L101.57122395833333,110.03001251220702L102.05260416666667,79.61935851573945L102.53398437499999,81.19573860168457L103.01536458333334,94.41618654727937L103.49674479166667,57.395817089080815L103.97812499999999,68.34332184791565L104.45950520833334,85.60993115901947L104.94088541666667,40.863662338256844L105.422265625,85.92109351158142L105.90364583333333,81.64431710243225L106.38502604166668,88.85229477882386L106.86640625,33.393858432769775L107.34778645833333,81.71079068183899L107.82916666666667,93.40940637588501L108.310546875,90.2892837524414L108.79192708333333,65.10232129096984L109.27330729166667,96.32539873123169L109.7546875,134.10654610991477L110.23606770833332,93.68325963020324L110.71744791666667,71.13331317901611L111.198828125,59.408913230896005L111.68020833333333,90.06374537944794L112.16158854166666,88.08699617385865L112.64296875000001,123.49744702577591L113.12434895833333,95.45289502143861L113.60572916666666,88.64024777412415L114.08710937500001,91.17699215412141L114.56848958333333,93.36241657733918L115.04986979166667,58.667373275756844L115.53125,85.72755124568938L116.01263020833333,94.22719345092774L116.49401041666667,85.3566040277481L116.975390625,95.52021260261536L117.45677083333334,47.24875516891479L117.93815104166667,103.34903165102004L118.41953124999999,102.38873698711394L118.90091145833334,97.77610273361206L119.38229166666666,107.32504802942276L119.863671875,83.90901017189026L120.34505208333334,112.01481771469116L120.82643229166666,88.0162181854248L121.3078125,74.84338037967682L121.78919270833335,114.6076460123062L122.27057291666667,67.26935913562774L122.751953125,99.64127912521361L123.23333333333333,75.65946679115295L123.71471354166667,69.75324368476868L124.19609375,125.11806177198888L124.67747395833332,112.34413454532624L125.15885416666667,105.68691866397857L125.640234375,19.266737365722648L126.12161458333333,106.04982043504715L126.60299479166667,78.44713711738586L127.084375,111.65020262002945L127.56575520833333,88.52685613632202L128.04713541666666,112.06328029632569L128.528515625,92.02029762268067L129.00989583333333,79.256467294693L129.49127604166665,77.27440931797027L129.97265625,88.03270576000214L130.45403645833332,63.42200238704681L130.93541666666667,94.73117222785949L131.41679687500002,90.16364564895629L131.89817708333334,86.7843132019043L132.37955729166666,101.63771889209748L132.8609375,100.34444653987885L133.34231770833333,92.35460672378541L133.82369791666667,131.58482034578918L134.305078125,89.33078470230102L134.78645833333334,107.78669378757478L135.26783854166666,67.84271485805512L135.74921874999998,90.91581158638L136.23059895833333,60.09776215553284L136.71197916666665,108.42267444133758L137.193359375,111.68727539777755L137.67473958333335,94.7032906293869L138.15611979166667,111.19110996723175L138.6375,119.9609888792038L139.11888020833334,122.67831587791443L139.60026041666666,114.9854001045227L140.081640625,99.5493420124054L140.56302083333335,102.3264496564865L141.04440104166667,100.39568588733674L141.52578125,97.3988318324089L142.00716145833331,91.01765727996826L142.48854166666666,94.8844809293747L142.969921875,107.09495837688446L143.45130208333333,73.02781863212586L143.93268229166668,91.8624946117401L144.4140625,98.83532495498658L144.89544270833335,80.40918381214142L145.37682291666667,91.8145637512207L145.858203125,61.71654911041259L146.33958333333334,93.99294497966766L146.82096354166666,171.18311448097228L147.30234375,96.66346364021301L147.78372395833335,110.39657725095749L148.26510416666665,117.45867871642112L148.746484375,85.38635087013245L149.22786458333334,83.06513500213623L149.70924479166666,91.06127529144287L150.190625,97.36168731451035L150.67200520833333,105.77976729869842L151.15338541666665,98.78691512346268L151.634765625,110.38835034370423L152.11614583333332,91.40891962051391L152.59752604166667,95.03018517494202L153.07890625000002,81.13095724582672L153.5602864583333,103.52704639434815L154.04166666666666,97.30029673576355L154.523046875,104.68172943592072L155.00442708333333,86.26745495796204L155.48580729166667,162.0080155491829L155.96718750000002,88.72156312465667L156.44856770833331,104.55779621601106L156.92994791666666,106.28610084056855L157.411328125,102.25925656557082L157.89270833333333,113.21016898155212L158.37408854166668,113.18704333305358L158.85546875,112.5243880033493L159.33684895833332,101.33330011367798L159.81822916666667,97.66283980607987L160.29960937500002,101.87317850589751L160.78098958333334,80.44010803699494L161.26236979166666,61.19674530029296L161.74375,106.55721530914307L162.22513020833333,87.69110448360443L162.70651041666667,76.32411396503448L163.187890625,92.06023578643799L163.66927083333334,99.18100275993346L164.15065104166666,120.99864052534103L164.63203124999998,95.42904353141785L165.11341145833333,108.84834673404693L165.59479166666668,107.37624728679657L166.076171875,119.06960273981095L166.55755208333332,119.89610413312913L167.03893229166667,130.8765059709549L167.5203125,105.85077105760574L168.00169270833334,104.35759055614471L168.48307291666669,120.443137550354L168.96445312499998,112.75432362556457L169.44583333333333,110.98296225070953L169.92721354166667,173.4446172237396L170.40859375,110.16539039611816L170.88997395833334,119.8672688126564L171.3713541666667,94.4397426366806L171.85273437499998,129.6676490932703L172.33411458333333,82.61292307376861L172.81549479166668,114.23176138401031L173.296875,98.99215103387833L173.77825520833335,139.20127048194408L174.25963541666667,94.55406267642975L174.741015625,114.95837516784668L175.22239583333334,112.14106771945954L175.70377604166666,82.15421233177186L176.18515625,105.36475052833556L176.66653645833335,107.13788430690765L177.14791666666665,107.69573149681092L177.629296875,98.92419412136077L178.11067708333334,103.54051877260208L178.59205729166666,112.51031638383866L179.0734375,92.18869285583496L179.55481770833333,123.59512335062027L180.03619791666665,120.01646089553833L180.517578125,89.54007182121278L180.99895833333335,145.18763735890388L181.48033854166667,106.15512442588806L181.96171875,83.0919531583786L182.44309895833334,102.33560707569121L182.92447916666666,116.91205358505249L183.405859375,103.82593907117844L183.88723958333335,107.41321878433227L184.36861979166665,124.97284335494042L184.85,107.12166259288789L185.33138020833334,98.62565803527832L185.81276041666666,131.52546104192734L186.294140625,100.69437389373779L186.77552083333333,111.81126769781112L187.25690104166665,107.08760290145874L187.73828125,107.62563925981522L188.21966145833332,109.66123015880585L188.70104166666667,116.95973546504975L189.18242187500002,115.19578864574432L189.6638020833333,112.25890513658523L190.14518229166666,116.76620269417764L190.6265625,114.17368562221527L191.10794270833333,101.64109911918639L191.58932291666667,100.94405071735382L192.07070312500002,107.48605613708496L192.55208333333331,116.05404349565505L193.03346354166666,118.00987200736999L193.51484375,113.86446447372437L193.99622395833333,95.7572715997696L194.47760416666668,108.55102390050888L194.958984375,126.05079133808613L195.44036458333332,91.98372702598571L195.92174479166667,105.3917501449585L196.40312500000002,111.8012409567833L196.88450520833334,104.77072520256043L197.36588541666666,122.23866797089578L197.847265625,135.09156422317028L198.32864583333333,117.6661143064499L198.81002604166667,121.53440546393394L199.29140625,104.68427832126618L199.77278645833334,119.13451280593871L200.25416666666666,125.99281580150127L200.73554687499998,110.65694968700409L201.21692708333333,122.07406125068665L201.69830729166668,121.66315898895265L202.1796875,93.18988573551178L202.66106770833332,120.7074008345604L203.14244791666667,103.0873573422432L203.623828125,115.75015432834626L204.10520833333334,114.66963794231414L204.58658854166669,111.83460434675216L205.06796874999998,108.66596217155457L205.54934895833333,120.07137692570687L206.03072916666667,122.83428107500076L206.512109375,109.1841328382492L206.99348958333334,116.24916193485261L207.4748697916667,115.72173256874085L207.95624999999998,112.05548382997513L208.43763020833333,121.35949031710625L208.91901041666668,123.0371485054493L209.400390625,121.92494618296622L209.88177083333335,116.97491483688354L210.36315104166667,117.4116224527359L210.84453125,115.03689687252044L211.32591145833334,120.91271481513978L211.80729166666666,118.14886221885682L212.288671875,113.33206393718719L212.77005208333335,123.9281606465578L213.25143229166665,121.81294925808906L213.7328125,114.17143424749374L214.21419270833334,118.7590396285057L214.69557291666666,120.48930444717406L215.176953125,120.09196212887764L215.65833333333333,127.51233759820461L216.13971354166665,91.63939962387086L216.62109375,122.27269284725189L217.10247395833335,119.75870908498764L217.58385416666667,102.39427996873856L218.065234375,107.04395112991334L218.54661458333334,136.3641891270876L219.02799479166666,121.73943775892258L219.509375,113.06753479242325L219.99075520833335,121.94318189620971L220.47213541666665,128.28367767333984L220.953515625,123.48965372443199L221.43489583333334,125.49904258847236L221.91627604166666,123.81042609214784L222.39765625,119.40122897028924L222.87903645833333,115.35754791498185L223.36041666666665,116.84729965925216L223.841796875,130.39825579673052L224.32317708333332,122.95198134183885L224.80455729166667,121.30698391199111L225.28593750000002,113.76464016437531L225.7673177083333,124.2551380097866L226.24869791666666,115.33488330245018L226.730078125,124.81891061961652L227.21145833333333,131.9948819026351L227.69283854166667,117.18059595823287L228.17421875000002,131.56494845598937L228.65559895833331,129.73375843316316L229.13697916666666,124.99567518532275L229.618359375,121.94734704494476L230.09973958333333,108.25930523872375L230.58111979166668,119.29175033569335L231.0625,125.86740188598633L231.54388020833332,125.83224657475948L232.02526041666667,112.00133900642395L232.50664062500002,131.59559086337686L232.98802083333334,125.19605228304863L233.46940104166666,124.8813029229641L233.95078125,116.25638553500175L234.43216145833333,124.8373578608036L234.91354166666667,124.38660763800145L235.394921875,118.87322673797608L235.87630208333334,129.08054827451707L236.35768229166666,128.47426118552684L236.83906249999998,130.58033757358788L237.32044270833333,124.72435393631459L237.80182291666668,119.47978232502938L238.283203125,122.27487248182297L238.76458333333332,122.68032249212264L239.24596354166667,128.55498626232148L239.72734375,128.99665819108486L240.20872395833334,131.98787114918233L240.69010416666669,129.0158666163683L241.17148437499998,126.63710829019546L241.65286458333333,127.68400544822215L242.13424479166667,126.40011681318283L242.615625,126.92825303077699L243.09700520833334,128.84080772548913L243.5783854166667,126.02779281735421L244.05976562499998,127.7293779283762L244.54114583333333,130.06471790224313L245.02252604166668,127.28128420114517L245.50390625,128.9649166032672L245.98528645833335,127.24116668701173L246.46666666666667,128.0061171412468L246.948046875,126.08232851922513L247.42942708333334,128.10595200061798L247.91080729166666,126.86443278193474L248.3921875,123.94655039012433L248.87356770833335,128.1472621947527L249.35494791666665,129.1959037989378L249.836328125,129.40242786705494L250.31770833333334,124.61658809781075L250.79908854166666,135.02967911213636L251.28046875,127.92278884649276L251.76184895833333,129.6220529526472L252.24322916666665,127.86019503772259L252.724609375,128.0849363565445L253.20598958333335,130.67634989619256L253.68736979166667,131.0277421206236L254.16875,127.64086060523987L254.65013020833334,126.71142159104348L255.13151041666666,129.90252449959516L255.612890625,131.38423936888574L256.0942708333333,130.18667747676372L256.5756510416667,130.3743265002966L257.05703125,129.72578393518924L257.53841145833337,130.67481460422277L258.01979166666666,131.0408219061792L258.501171875,130.10310705900193L258.9825520833333,131.0051294669509L259.46393229166665,131.78665506094694L259.9453125,132.74414160568267L260.4266927083333,131.46625102087856L260.90807291666664,131.70837983116508L261.389453125,131.3915670186281L261.87083333333334,131.94738761521876L262.3522135416667,131.81167219653724L262.83359375000003,132.1705578379333L263.3149739583333,132.08940937556326L263.7963541666667,132.1748847976327L264.277734375,132.43622974790634L264.7591145833333,132.61117130275815" style="fill: none;" fill="none"></path></g></g></g></g></g></g><g transform="translate(41, 177)" clip-path="url(#clip_1)"><clipPath id="clip_1"><rect width="288" height="23"></rect></clipPath><g><g><line x1="0" y1="0" x2="0" y2="5" style="visibility: inherit;" fill="rgb(0, 0, 0)" stroke="rgb(204, 204, 204)" stroke-width="1px"></line><line x1="24.069010416666664" y1="0" x2="24.069010416666664" y2="5" style="visibility: inherit;" fill="rgb(0, 0, 0)" stroke="rgb(204, 204, 204)" stroke-width="1px"></line><line x1="48.13802083333333" y1="0" x2="48.13802083333333" y2="5" style="visibility: inherit;" fill="rgb(0, 0, 0)" stroke="rgb(204, 204, 204)" stroke-width="1px"></line><line x1="72.20703125" y1="0" x2="72.20703125" y2="5" style="visibility: inherit;" fill="rgb(0, 0, 0)" stroke="rgb(204, 204, 204)" stroke-width="1px"></line><line x1="96.27604166666666" y1="0" x2="96.27604166666666" y2="5" style="visibility: inherit;" fill="rgb(0, 0, 0)" stroke="rgb(204, 204, 204)" stroke-width="1px"></line><line x1="120.34505208333334" y1="0" x2="120.34505208333334" y2="5" style="visibility: inherit;" fill="rgb(0, 0, 0)" stroke="rgb(204, 204, 204)" stroke-width="1px"></line><line x1="144.4140625" y1="0" x2="144.4140625" y2="5" style="visibility: inherit;" fill="rgb(0, 0, 0)" stroke="rgb(204, 204, 204)" stroke-width="1px"></line><line x1="168.48307291666669" y1="0" x2="168.48307291666669" y2="5" style="visibility: inherit;" fill="rgb(0, 0, 0)" stroke="rgb(204, 204, 204)" stroke-width="1px"></line><line x1="192.55208333333331" y1="0" x2="192.55208333333331" y2="5" style="visibility: inherit;" fill="rgb(0, 0, 0)" stroke="rgb(204, 204, 204)" stroke-width="1px"></line><line x1="216.62109375" y1="0" x2="216.62109375" y2="5" style="visibility: inherit;" fill="rgb(0, 0, 0)" stroke="rgb(204, 204, 204)" stroke-width="1px"></line><line x1="240.69010416666669" y1="0" x2="240.69010416666669" y2="5" style="visibility: inherit;" fill="rgb(0, 0, 0)" stroke="rgb(204, 204, 204)" stroke-width="1px"></line><line x1="264.7591145833333" y1="0" x2="264.7591145833333" y2="5" style="visibility: inherit;" fill="rgb(0, 0, 0)" stroke="rgb(204, 204, 204)" stroke-width="1px"></line><line x1="288.828125" y1="0" x2="288.828125" y2="5" style="visibility: inherit;" fill="rgb(0, 0, 0)" stroke="rgb(204, 204, 204)" stroke-width="1px"></line></g><g transform="translate(0, 8)"><text x="0" y="0" dx="0em" dy="0.95em" style="text-anchor: middle; visibility: hidden; font-family: Roboto, sans-serif; font-size: 12px; font-weight: 200;" fill="rgb(255, 255, 255)" stroke="none" stroke-width="1px">-50</text><text x="24.069010416666664" y="0" dx="0em" dy="0.95em" style="text-anchor: middle; visibility: inherit; font-family: Roboto, sans-serif; font-size: 12px; font-weight: 200;" fill="rgb(255, 255, 255)" stroke="none" stroke-width="1px">0</text><text x="48.13802083333333" y="0" dx="0em" dy="0.95em" style="text-anchor: middle; visibility: hidden; font-family: Roboto, sans-serif; font-size: 12px; font-weight: 200;" fill="rgb(255, 255, 255)" stroke="none" stroke-width="1px">50</text><text x="72.20703125" y="0" dx="0em" dy="0.95em" style="text-anchor: middle; visibility: inherit; font-family: Roboto, sans-serif; font-size: 12px; font-weight: 200;" fill="rgb(255, 255, 255)" stroke="none" stroke-width="1px">100</text><text x="96.27604166666666" y="0" dx="0em" dy="0.95em" style="text-anchor: middle; visibility: hidden; font-family: Roboto, sans-serif; font-size: 12px; font-weight: 200;" fill="rgb(255, 255, 255)" stroke="none" stroke-width="1px">150</text><text x="120.34505208333334" y="0" dx="0em" dy="0.95em" style="text-anchor: middle; visibility: inherit; font-family: Roboto, sans-serif; font-size: 12px; font-weight: 200;" fill="rgb(255, 255, 255)" stroke="none" stroke-width="1px">200</text><text x="144.4140625" y="0" dx="0em" dy="0.95em" style="text-anchor: middle; visibility: hidden; font-family: Roboto, sans-serif; font-size: 12px; font-weight: 200;" fill="rgb(255, 255, 255)" stroke="none" stroke-width="1px">250</text><text x="168.48307291666669" y="0" dx="0em" dy="0.95em" style="text-anchor: middle; visibility: inherit; font-family: Roboto, sans-serif; font-size: 12px; font-weight: 200;" fill="rgb(255, 255, 255)" stroke="none" stroke-width="1px">300</text><text x="192.55208333333331" y="0" dx="0em" dy="0.95em" style="text-anchor: middle; visibility: hidden; font-family: Roboto, sans-serif; font-size: 12px; font-weight: 200;" fill="rgb(255, 255, 255)" stroke="none" stroke-width="1px">350</text><text x="216.62109375" y="0" dx="0em" dy="0.95em" style="text-anchor: middle; visibility: inherit; font-family: Roboto, sans-serif; font-size: 12px; font-weight: 200;" fill="rgb(255, 255, 255)" stroke="none" stroke-width="1px">400</text><text x="240.69010416666669" y="0" dx="0em" dy="0.95em" style="text-anchor: middle; visibility: hidden; font-family: Roboto, sans-serif; font-size: 12px; font-weight: 200;" fill="rgb(255, 255, 255)" stroke="none" stroke-width="1px">450</text><text x="264.7591145833333" y="0" dx="0em" dy="0.95em" style="text-anchor: middle; visibility: inherit; font-family: Roboto, sans-serif; font-size: 12px; font-weight: 200;" fill="rgb(255, 255, 255)" stroke="none" stroke-width="1px">500</text><text x="288.828125" y="0" dx="0em" dy="0.95em" style="text-anchor: middle; visibility: hidden; font-family: Roboto, sans-serif; font-size: 12px; font-weight: 200;" fill="rgb(255, 255, 255)" stroke="none" stroke-width="1px">550</text></g><line x1="0" y1="0" x2="288.828125" y2="0" fill="rgb(0, 0, 0)" stroke="rgb(204, 204, 204)" stroke-width="1px"></line></g></g></g></g></svg>