<svg viewBox="0 0 330 200" xmlns="http://www.w3.org/2000/svg"><g><g><g><g><g><line x1="41.171875" y1="177" x2="36.171875" y2="177" style="visibility: inherit;" fill="rgb(0, 0, 0)" stroke="rgb(204, 204, 204)" stroke-width="1px"></line><line x1="41.171875" y1="157.33333333333331" x2="36.171875" y2="157.33333333333331" style="visibility: inherit;" fill="rgb(0, 0, 0)" stroke="rgb(204, 204, 204)" stroke-width="1px"></line><line x1="41.171875" y1="137.66666666666666" x2="36.171875" y2="137.66666666666666" style="visibility: inherit;" fill="rgb(0, 0, 0)" stroke="rgb(204, 204, 204)" stroke-width="1px"></line><line x1="41.171875" y1="118.00000000000001" x2="36.171875" y2="118.00000000000001" style="visibility: inherit;" fill="rgb(0, 0, 0)" stroke="rgb(204, 204, 204)" stroke-width="1px"></line><line x1="41.171875" y1="98.33333333333334" x2="36.171875" y2="98.33333333333334" style="visibility: inherit;" fill="rgb(0, 0, 0)" stroke="rgb(204, 204, 204)" stroke-width="1px"></line><line x1="41.171875" y1="78.66666666666666" x2="36.171875" y2="78.66666666666666" style="visibility: inherit;" fill="rgb(0, 0, 0)" stroke="rgb(204, 204, 204)" stroke-width="1px"></line><line x1="41.171875" y1="59.00000000000001" x2="36.171875" y2="59.00000000000001" style="visibility: inherit;" fill="rgb(0, 0, 0)" stroke="rgb(204, 204, 204)" stroke-width="1px"></line><line x1="41.171875" y1="39.33333333333333" x2="36.171875" y2="39.33333333333333" style="visibility: inherit;" fill="rgb(0, 0, 0)" stroke="rgb(204, 204, 204)" stroke-width="1px"></line><line x1="41.171875" y1="19.666666666666675" x2="36.171875" y2="19.666666666666675" style="visibility: inherit;" fill="rgb(0, 0, 0)" stroke="rgb(204, 204, 204)" stroke-width="1px"></line><line x1="41.171875" y1="0" x2="36.171875" y2="0" style="visibility: inherit;" fill="rgb(0, 0, 0)" stroke="rgb(204, 204, 204)" stroke-width="1px"></line></g><g transform="translate(31.171875, 0)"><text x="0" y="177" dx="0em" dy="0.3em" style="text-anchor: end; visibility: hidden; font-family: Roboto, sans-serif; font-size: 12px; font-weight: 200;" fill="rgb(255, 255, 255)" stroke="none" stroke-width="1px">-10</text><text x="0" y="157.33333333333331" dx="0em" dy="0.3em" style="text-anchor: end; visibility: inherit; font-family: Roboto, sans-serif; font-size: 12px; font-weight: 200;" fill="rgb(255, 255, 255)" stroke="none" stroke-width="1px">0</text><text x="0" y="137.66666666666666" dx="0em" dy="0.3em" style="text-anchor: end; visibility: hidden; font-family: Roboto, sans-serif; font-size: 12px; font-weight: 200;" fill="rgb(255, 255, 255)" stroke="none" stroke-width="1px">10</text><text x="0" y="118.00000000000001" dx="0em" dy="0.3em" style="text-anchor: end; visibility: inherit; font-family: Roboto, sans-serif; font-size: 12px; font-weight: 200;" fill="rgb(255, 255, 255)" stroke="none" stroke-width="1px">20</text><text x="0" y="98.33333333333334" dx="0em" dy="0.3em" style="text-anchor: end; visibility: hidden; font-family: Roboto, sans-serif; font-size: 12px; font-weight: 200;" fill="rgb(255, 255, 255)" stroke="none" stroke-width="1px">30</text><text x="0" y="78.66666666666666" dx="0em" dy="0.3em" style="text-anchor: end; visibility: inherit; font-family: Roboto, sans-serif; font-size: 12px; font-weight: 200;" fill="rgb(255, 255, 255)" stroke="none" stroke-width="1px">40</text><text x="0" y="59.00000000000001" dx="0em" dy="0.3em" style="text-anchor: end; visibility: hidden; font-family: Roboto, sans-serif; font-size: 12px; font-weight: 200;" fill="rgb(255, 255, 255)" stroke="none" stroke-width="1px">50</text><text x="0" y="39.33333333333333" dx="0em" dy="0.3em" style="text-anchor: end; visibility: inherit; font-family: Roboto, sans-serif; font-size: 12px; font-weight: 200;" fill="rgb(255, 255, 255)" stroke="none" stroke-width="1px">60</text><text x="0" y="19.666666666666675" dx="0em" dy="0.3em" style="text-anchor: end; visibility: hidden; font-family: Roboto, sans-serif; font-size: 12px; font-weight: 200;" fill="rgb(255, 255, 255)" stroke="none" stroke-width="1px">70</text><text x="0" y="0" dx="0em" dy="0.3em" style="text-anchor: end; visibility: hidden; font-family: Roboto, sans-serif; font-size: 12px; font-weight: 200;" fill="rgb(255, 255, 255)" stroke="none" stroke-width="1px">80</text></g><line x1="41.171875" y1="0" x2="41.171875" y2="177" fill="rgb(0, 0, 0)" stroke="rgb(204, 204, 204)" stroke-width="1px"></line></g></g><g transform="translate(41, 0)" clip-path="url(#clip_0)"><clipPath id="clip_0"><rect width="288" height="177"></rect></clipPath><g><g><g><line x1="0" y1="0" x2="0" y2="177" fill="rgb(0, 0, 0)" stroke="rgb(189, 189, 189)" stroke-width="1px" opacity="0.25"></line><line x1="24.069010416666664" y1="0" x2="24.069010416666664" y2="177" fill="rgb(0, 0, 0)" stroke="rgb(189, 189, 189)" stroke-width="1px" opacity="0.25"></line><line x1="48.13802083333333" y1="0" x2="48.13802083333333" y2="177" fill="rgb(0, 0, 0)" stroke="rgb(189, 189, 189)" stroke-width="1px" opacity="0.25"></line><line x1="72.20703125" y1="0" x2="72.20703125" y2="177" fill="rgb(0, 0, 0)" stroke="rgb(189, 189, 189)" stroke-width="1px" opacity="0.25"></line><line x1="96.27604166666666" y1="0" x2="96.27604166666666" y2="177" fill="rgb(0, 0, 0)" stroke="rgb(189, 189, 189)" stroke-width="1px" opacity="0.25"></line><line x1="120.34505208333334" y1="0" x2="120.34505208333334" y2="177" fill="rgb(0, 0, 0)" stroke="rgb(189, 189, 189)" stroke-width="1px" opacity="0.25"></line><line x1="144.4140625" y1="0" x2="144.4140625" y2="177" fill="rgb(0, 0, 0)" stroke="rgb(189, 189, 189)" stroke-width="1px" opacity="0.25"></line><line x1="168.48307291666669" y1="0" x2="168.48307291666669" y2="177" fill="rgb(0, 0, 0)" stroke="rgb(189, 189, 189)" stroke-width="1px" opacity="0.25"></line><line x1="192.55208333333331" y1="0" x2="192.55208333333331" y2="177" fill="rgb(0, 0, 0)" stroke="rgb(189, 189, 189)" stroke-width="1px" opacity="0.25"></line><line x1="216.62109375" y1="0" x2="216.62109375" y2="177" fill="rgb(0, 0, 0)" stroke="rgb(189, 189, 189)" stroke-width="1px" opacity="0.25"></line><line x1="240.69010416666669" y1="0" x2="240.69010416666669" y2="177" fill="rgb(0, 0, 0)" stroke="rgb(189, 189, 189)" stroke-width="1px" opacity="0.25"></line><line x1="264.7591145833333" y1="0" x2="264.7591145833333" y2="177" fill="rgb(0, 0, 0)" stroke="rgb(189, 189, 189)" stroke-width="1px" opacity="0.25"></line><line x1="288.828125" y1="0" x2="288.828125" y2="177" fill="rgb(0, 0, 0)" stroke="rgb(189, 189, 189)" stroke-width="1px" opacity="0.25"></line></g><g><line x1="0" y1="177" x2="288.828125" y2="177" fill="rgb(0, 0, 0)" stroke="rgb(189, 189, 189)" stroke-width="1px" opacity="0.25"></line><line x1="0" y1="157.33333333333331" x2="288.828125" y2="157.33333333333331" fill="rgb(0, 0, 0)" stroke="rgb(189, 189, 189)" stroke-width="1px" opacity="0.25"></line><line x1="0" y1="137.66666666666666" x2="288.828125" y2="137.66666666666666" fill="rgb(0, 0, 0)" stroke="rgb(189, 189, 189)" stroke-width="1px" opacity="0.25"></line><line x1="0" y1="118.00000000000001" x2="288.828125" y2="118.00000000000001" fill="rgb(0, 0, 0)" stroke="rgb(189, 189, 189)" stroke-width="1px" opacity="0.25"></line><line x1="0" y1="98.33333333333334" x2="288.828125" y2="98.33333333333334" fill="rgb(0, 0, 0)" stroke="rgb(189, 189, 189)" stroke-width="1px" opacity="0.25"></line><line x1="0" y1="78.66666666666666" x2="288.828125" y2="78.66666666666666" fill="rgb(0, 0, 0)" stroke="rgb(189, 189, 189)" stroke-width="1px" opacity="0.25"></line><line x1="0" y1="59.00000000000001" x2="288.828125" y2="59.00000000000001" fill="rgb(0, 0, 0)" stroke="rgb(189, 189, 189)" stroke-width="1px" opacity="0.25"></line><line x1="0" y1="39.33333333333333" x2="288.828125" y2="39.33333333333333" fill="rgb(0, 0, 0)" stroke="rgb(189, 189, 189)" stroke-width="1px" opacity="0.25"></line><line x1="0" y1="19.666666666666675" x2="288.828125" y2="19.666666666666675" fill="rgb(0, 0, 0)" stroke="rgb(189, 189, 189)" stroke-width="1px" opacity="0.25"></line><line x1="0" y1="0" x2="288.828125" y2="0" fill="rgb(0, 0, 0)" stroke="rgb(189, 189, 189)" stroke-width="1px" opacity="0.25"></line></g></g></g><g><g><line x1="0" y1="157.33333333333331" x2="288.828125" y2="157.33333333333331" fill="rgb(0, 0, 0)" stroke="rgb(153, 153, 153)" stroke-width="1.5px"></line></g></g><g><g><line x1="24.069010416666664" y1="0" x2="24.069010416666664" y2="177" fill="rgb(0, 0, 0)" stroke="rgb(153, 153, 153)" stroke-width="1.5px"></line></g></g><g><g><g><g><g><path stroke="rgb(255, 112, 67)" stroke-width="2px" d="M24.550390625000002,139.16129439671835L25.031770833333333,142.68740038592253L25.513151041666667,145.46624697625128L25.994531249999998,135.41465514586852L26.475911458333332,142.01417748501342L26.957291666666666,137.08825584055344L27.438671875,136.51800503847542L27.92005208333333,137.58693406567178L28.401432291666666,129.66822492650343L28.8828125,137.75638535298737L29.364192708333334,140.3526350899965L29.845572916666665,133.20233460039503L30.326953125,136.91556110753876L30.808333333333334,130.05784299414742L31.289713541666668,127.36028927345394L31.77109375,133.42088003983204L32.25247395833333,134.88081162914764L32.73385416666667,125.6042178530541L33.215234375,127.31848083678328L33.696614583333336,126.51724262014051L34.17799479166666,133.2159988313569L34.659375,130.45380605838687L35.14075520833334,133.07078310501447L35.622135416666666,136.61288921206992L36.103515625,130.76919476030068L36.584895833333334,131.98577580461748L37.06627604166666,136.71670235136668L37.54765625,140.04546954620852L38.02903645833333,139.1791715920607L38.510416666666664,135.07248342645067L38.991796875000006,138.10739937926505L39.47317708333333,142.64928835869154L39.95455729166667,145.66072795367762L40.4359375,125.66940148350164L40.917317708333336,114.49867429397158L41.39869791666667,117.07330224033892L41.880078125,128.16613385767135L42.36145833333333,133.20412429177685L42.84283854166667,139.70229098895254L43.32421875,120.69148181024148L43.805598958333334,132.39161848853598L44.28697916666666,138.11713536480426L44.768359375,142.31834562662863L45.24973958333334,145.751398700752L45.731119791666664,140.04167347959716L46.2125,133.05792107765498L46.69388020833333,127.66845010580128L47.17526041666667,133.5683413848743L47.656640625,130.23286862861943L48.13802083333333,125.79139869774298L48.61940104166667,128.28238361687676L49.100781250000004,100.68384311904381L49.58216145833333,102.47574719159577L50.063541666666666,111.37977316596943L50.544921875,122.86814759714872L51.026302083333334,132.90433871795315L51.50768229166667,140.1220169871368L51.989062499999996,115.09795074148998L52.47044270833334,127.41579034640819L52.951822916666664,122.37692723142267L53.433203125,108.70944909503453L53.91458333333333,107.71131706269588L54.39596354166667,120.52195722672911L54.87734375,124.64073764577618L55.358723958333336,111.5830551580294L55.84010416666666,101.08013231485573L56.321484375000004,110.95393096582742L56.80286458333333,123.06894886850282L57.284244791666666,126.92961507732966L57.765625,131.83700268899932L58.247005208333334,127.24225107183676L58.72838541666667,126.40304880033061L59.209765624999996,134.03205021724725L59.69114583333333,99.18247767158496L60.17252604166667,105.61010421299645L60.65390625,100.83721588955189L61.13528645833333,109.29962311124278L61.61666666666667,115.50671378246733L62.098046875,121.54572259430901L62.579427083333336,120.1942280002781L63.06080729166666,123.30472955107436L63.5421875,129.41875206189818L64.02356770833333,132.49008832853747L64.50494791666667,127.38858966046588L64.986328125,125.34277089002276L65.46770833333333,128.35922984009954L65.94908854166667,131.4254308724762L66.43046875,114.36471131794902L66.91184895833334,105.47736036227846L67.39322916666667,93.55518830535881L67.87460937499999,112.82110401759415L68.35598958333333,66.81045450639935L68.83736979166667,91.57094162214834L69.31875,113.13264717429811L69.80013020833333,110.8258560807173L70.28151041666668,113.55874654161815L70.762890625,101.65988379866812L71.24427083333333,98.42986507877397L71.72565104166667,103.14224973310128L72.20703125,107.3131751035838L72.68841145833333,121.19582230934688L73.16979166666667,121.07499163579479L73.651171875,124.63465777663116L74.13255208333332,103.72952332347361L74.61393229166667,118.87037002962091L75.0953125,114.63522868296641L75.57669270833333,122.86291251008069L76.05807291666666,108.48653253864411L76.53945312500001,118.19214759418975L77.02083333333333,128.1221015187581L77.50221354166666,122.73333746490272L77.98359375000001,108.09983550539647L78.46497395833333,107.13607163792712L78.94635416666667,119.48098243376128L79.427734375,114.45066412522662L79.90911458333333,115.83857689642466L80.39049479166667,109.97042132065319L80.871875,111.79333273003009L81.35325520833334,126.05149206729196L81.83463541666667,112.60524204579598L82.31601562499999,115.84995654777673L82.79739583333334,118.48627564183212L83.27877604166666,118.43510973611455L83.76015625,127.12332199475075L84.24153645833334,116.2378863543184L84.72291666666666,107.72596446189021L85.204296875,109.13722897701933L85.68567708333335,119.25511407463092L86.16705729166667,128.06078564439983L86.6484375,110.62525614391309L87.12981770833333,108.82167840937221L87.61119791666667,113.8605948914793L88.092578125,92.35065836223427L88.57395833333332,93.04319876751633L89.05533854166667,106.95867901611705L89.53671875,95.88140944588412L90.01809895833333,103.69465621097956L90.49947916666667,116.02528278632613L90.980859375,122.19791940246736L91.46223958333333,119.42658842086423L91.94361979166668,115.8813382122529L92.425,115.7495907966865L92.90638020833333,122.1205553307291L93.38776041666667,121.87373941778121L93.869140625,114.445216538505L94.35052083333333,92.34923141631089L94.83190104166665,109.37742580638213L95.31328125,103.63751549103382L95.79466145833334,82.57591420911895L96.27604166666666,106.44373504037507L96.757421875,108.59116188822767L97.23880208333334,116.95634039099033L97.72018229166666,123.30496273861755L98.20156250000001,126.16257606936543L98.68294270833333,127.55551001008706L99.16432291666666,119.50041721278441L99.645703125,111.92434171672804L100.12708333333333,116.54946445491055L100.60846354166667,118.4289109115944L101.08984375,127.47875339164499L101.57122395833333,124.67243968829375L102.05260416666667,118.95215473277636L102.53398437499999,120.577397982817L103.01536458333334,117.48454281161183L103.49674479166667,118.12802243010059L103.97812499999999,110.02783020316112L104.45950520833334,103.86581741264621L104.94088541666667,98.64740368677543L105.422265625,115.40982672542297L105.90364583333333,123.20887226701838L106.38502604166668,122.99102612785416L106.86640625,112.04375900742218L107.34778645833333,113.6644300634663L107.82916666666667,116.95525258581044L108.310546875,121.67743771224923L108.79192708333333,117.98403931291944L109.27330729166667,127.83453433391246L109.7546875,128.5255405138278L110.23606770833332,130.55096031766536L110.71744791666667,120.44333978813185L111.198828125,120.29223210047442L111.68020833333333,125.39132485736327L112.16158854166666,126.57131731602782L112.64296875000001,135.57527979908838L113.12434895833333,136.36903975793115L113.60572916666666,135.90813596732133L114.08710937500001,137.05744159948665L114.56848958333333,136.1141760547269L115.04986979166667,118.0910400047419L115.53125,125.11061855552268L116.01263020833333,130.33607656091434L116.49401041666667,125.30041367831339L116.975390625,132.60891077352954L117.45677083333334,122.9268985831489L117.93815104166667,130.17427430779586L118.41953124999999,133.5939322830614L118.90091145833334,137.41039048537425L119.38229166666666,135.6758159332804L119.863671875,131.88126119009118L120.34505208333334,134.31538243933207L120.82643229166666,134.46645047376643L121.3078125,125.40466061959354L121.78919270833335,134.27385805796737L122.27057291666667,128.6251828563532L122.751953125,120.64035790677627L123.23333333333333,125.84825056693413L123.71471354166667,121.54551062124136L124.19609375,130.77571807931935L124.67747395833332,134.38834541902028L125.15885416666667,137.9149370237162L125.640234375,110.41922417551682L126.12161458333333,107.29724033554488L126.60299479166667,109.23942463996775L127.084375,126.65326382330905L127.56575520833333,130.95906832408716L128.04713541666666,137.55998394585953L128.528515625,137.65942157799194L129.00989583333333,135.09549393379444L129.49127604166665,126.24974837966808L129.97265625,127.89305860708214L130.45403645833332,116.72194691294104L130.93541666666667,126.40505999187512L131.41679687500002,130.6059384606856L131.89817708333334,133.50489476210186L132.37955729166666,136.8068637994332L132.8609375,138.8432947807748L133.34231770833333,137.66830200035346L133.82369791666667,134.52435942466835L134.305078125,130.37473629185467L134.78645833333334,134.2121605462562L135.26783854166666,116.70246660738856L135.74921874999998,123.99916211019702L136.23059895833333,118.01378292704615L136.71197916666665,127.5980358122235L137.193359375,131.57014918573554L137.67473958333335,135.18334236140524L138.15611979166667,139.74596303969253L138.6375,141.25584937889263L139.11888020833334,139.25397290255285L139.60026041666666,144.10097729705177L140.081640625,135.45598835131545L140.56302083333335,136.70838837038335L141.04440104166667,136.66231386113256L141.52578125,118.14626817469991L142.00716145833331,123.15146484074754L142.48854166666666,128.5898755452L142.969921875,135.81450900986437L143.45130208333333,130.35769697089427L143.93268229166668,133.12776099862202L144.4140625,137.465632689461L144.89544270833335,133.26270057862956L145.37682291666667,132.79327446101033L145.858203125,117.044747336531L146.33958333333334,127.7310709696173L146.82096354166666,135.9538144753821L147.30234375,128.8828558621266L147.78372395833335,135.6660395441878L148.26510416666665,140.76179151772422L148.746484375,137.81148199803448L149.22786458333334,128.63361231790594L149.70924479166666,97.590102568633L150.190625,114.3198858183107L150.67200520833333,125.18732670540572L151.15338541666665,132.35714421331645L151.634765625,125.64137439663523L152.11614583333332,129.65912907134398L152.59752604166667,132.4222316707225L153.07890625000002,132.9126100219336L153.5602864583333,135.00710633491403L154.04166666666666,136.73370483140292L154.523046875,139.94653753881607L155.00442708333333,134.91985570512966L155.48580729166667,133.68069323582176L155.96718750000002,134.20106828072218L156.44856770833331,135.2442494522043L156.92994791666666,139.22437395209334L157.411328125,140.72834425384235L157.89270833333333,144.14706732978385L158.37408854166668,141.93879941705248L158.85546875,144.88863402741922L159.33684895833332,143.5118759326636L159.81822916666667,136.43863839691377L160.29960937500002,136.58319782944122L160.78098958333334,126.59195685774642L161.26236979166666,117.16348924325159L161.74375,130.60152299590504L162.22513020833333,131.14010176397068L162.70651041666667,124.0991986674908L163.187890625,130.8270895606885L163.66927083333334,136.01923214458859L164.15065104166666,141.15437368639746L164.63203124999998,137.48922019683462L165.11341145833333,139.98280212344693L165.59479166666668,137.57927365178733L166.076171875,138.82119525418312L166.55755208333332,140.0158175586652L167.03893229166667,127.23679198426716L167.5203125,133.40312221925876L168.00169270833334,134.48489346718256L168.48307291666669,138.1069749714941L168.96445312499998,140.83376180606817L169.44583333333333,139.07947373019786L169.92721354166667,140.5467259507797L170.40859375,142.3900862616882L170.88997395833334,140.81436028344578L171.3713541666667,134.99263725343036L171.85273437499998,139.9131604046588L172.33411458333333,130.54783945439513L172.81549479166668,138.105857382414L173.296875,139.43084742759004L173.77825520833335,140.85576966614715L174.25963541666667,129.87778869685596L174.741015625,137.86048065397085L175.22239583333334,140.59414662774626L175.70377604166666,137.00652867390176L176.18515625,139.93491474454336L176.66653645833335,139.704714557937L177.14791666666665,142.08694842315066L177.629296875,141.83353013864286L178.11067708333334,139.595572770783L178.59205729166666,143.573638112682L179.0734375,137.14798915552007L179.55481770833333,141.44035915293156L180.03619791666665,141.3434363231452L180.517578125,136.95230907744025L180.99895833333335,135.3546529220226L181.48033854166667,135.75599081032888L181.96171875,128.48058378401828L182.44309895833334,135.67925341817337L182.92447916666666,142.00803146942178L183.405859375,140.37136238096824L183.88723958333335,142.4698595367871L184.36861979166665,142.3710595926576L184.85,139.73385725592067L185.33138020833334,140.6410017833097L185.81276041666666,141.78137026967715L186.294140625,141.43478681955403L186.77552083333333,135.72964795986377L187.25690104166665,137.44237502847125L187.73828125,138.95295663703504L188.21966145833332,139.71637479711382L188.70104166666667,141.38506613078889L189.18242187500002,144.18958634852234L189.6638020833333,145.46066174358413L190.14518229166666,146.74009731106707L190.6265625,147.41841672735018L191.10794270833333,143.67787236245613L191.58932291666667,142.73591193262936L192.07070312500002,143.3224277288854L192.55208333333331,143.5203548331576L193.03346354166666,139.69262842469087L193.51484375,141.01504155326606L193.99622395833333,137.5268542597716L194.47760416666668,139.9463057702276L194.958984375,145.98593968123578L195.44036458333332,140.16343378355185L195.92174479166667,141.38118855235737L196.40312500000002,143.63154856302688L196.88450520833334,139.21204161675468L197.36588541666666,145.51233225076007L197.847265625,144.85517967459867L198.32864583333333,146.2422948589471L198.81002604166667,139.51750399117535L199.29140625,139.03533806351334L199.77278645833334,140.2558841332723L200.25416666666666,139.69457155309746L200.73554687499998,141.7660647003406L201.21692708333333,142.39957710676214L201.69830729166668,145.9459715228335L202.1796875,129.90626578567756L202.66106770833332,140.03875242487675L203.14244791666667,133.89092875700425L203.623828125,139.7215500217891L204.10520833333334,143.72806708991936L204.58658854166669,142.0483642723256L205.06796874999998,143.72393507592608L205.54934895833333,147.25012927019944L206.03072916666667,149.89326718661508L206.512109375,145.9738816358624L206.99348958333334,143.1990889264564L207.4748697916667,142.54867204458637L207.95624999999998,141.85838736593234L208.43763020833333,146.23252853255414L208.91901041666668,147.74980018355146L209.400390625,148.8423392366933L209.88177083333335,147.9547333782575L210.36315104166667,148.69646227326456L210.84453125,146.36584593351708L211.32591145833334,145.48144638109127L211.80729166666666,146.61111965504477L212.288671875,145.85819054042744L212.77005208333335,149.0982274368526L213.25143229166665,146.5643649578098L213.7328125,146.04594136066456L214.21419270833334,142.71322024386427L214.69557291666666,146.53967528350714L215.176953125,146.85778300836049L215.65833333333333,149.33370482849048L216.13971354166665,135.67786895850628L216.62109375,142.34018375417918L217.10247395833335,145.9385753405219L217.58385416666667,142.63746778955002L218.065234375,138.35015833890765L218.54661458333334,142.07451278672372L219.02799479166666,146.81633127390756L219.509375,143.88582365337942L219.99075520833335,147.041166229317L220.47213541666665,145.6663090885015L220.953515625,148.72649441328983L221.43489583333334,145.09737503169066L221.91627604166666,148.9204697787519L222.39765625,148.38148363883812L222.87903645833333,148.44336273029936L223.36041666666665,148.35712980306823L223.841796875,147.1218782140988L224.32317708333332,149.77486884155167L224.80455729166667,150.54613951914058L225.28593750000002,146.77549266856127L225.7673177083333,149.18979159646824L226.24869791666666,148.48290606045012L226.730078125,150.03282812005403L227.21145833333333,148.9477798464124L227.69283854166667,149.35789377913932L228.17421875000002,147.55206758645429L228.65559895833331,150.91305324765884L229.13697916666666,152.13917398774632L229.618359375,151.55787861496788L230.09973958333333,145.44561443601154L230.58111979166668,145.3071101841254L231.0625,149.2040917179016L231.54388020833332,151.41315420797451L232.02526041666667,145.8635304003461L232.50664062500002,147.75434154702225L232.98802083333334,150.71586102704697L233.46940104166666,151.40456506817836L233.95078125,149.54946495669753L234.43216145833333,150.63779292683103L234.91354166666667,151.31894943205592L235.394921875,150.71625297928406L235.87630208333334,152.6425576937539L236.35768229166666,153.45169387929315L236.83906249999998,154.68325678221862L237.32044270833333,153.94751202999493L237.80182291666668,150.80269374767946L238.283203125,150.7692067795722L238.76458333333332,151.0117219899648L239.24596354166667,153.10147433767577L239.72734375,154.23684622262206L240.20872395833334,153.25462954503982L240.69010416666669,153.99680094285853L241.17148437499998,153.47667761906348L241.65286458333333,154.1984008181664L242.13424479166667,153.94910229920666L242.615625,153.0033545872367L243.09700520833334,153.76265534415418L243.5783854166667,153.40680606766338L244.05976562499998,153.22262318067936L244.54114583333333,150.926657432113L245.02252604166668,150.78728615326486L245.50390625,152.90995052635856L245.98528645833335,153.24416853729107L246.46666666666667,153.94816226987686L246.948046875,154.10516292664818L247.42942708333334,154.2272858099205L247.91080729166666,153.96746025171447L248.3921875,152.3524931345042L248.87356770833335,153.64093676289278L249.35494791666665,154.30949048843092L249.836328125,154.68234171021143L250.31770833333334,153.96383216242828L250.79908854166666,154.73374303537884L251.28046875,154.44650893086333L251.76184895833333,155.15603626583862L252.24322916666665,154.4536630376635L252.724609375,154.23575553120136L253.20598958333335,154.8188204824585L253.68736979166667,154.94836709886204L254.16875,154.39480493640156L254.65013020833334,153.62224615526827L255.13151041666666,154.58110525754114L255.612890625,155.38365255423622L256.0942708333333,155.70553498576876L256.5756510416667,155.85892397209463L257.05703125,155.7070919515222L257.53841145833337,155.57835405178085L258.01979166666666,155.93647631433188L258.501171875,155.58742515178847L258.9825520833333,155.98553438255527L259.46393229166665,156.2426894897852L259.9453125,156.32982190271497L260.4266927083333,156.28072662212278L260.90807291666664,156.40698595822556L261.389453125,156.43211623545375L261.87083333333334,156.4823457693331L262.3522135416667,156.6869154051982L262.83359375000003,156.83696423993572L263.3149739583333,156.87818678467133L263.7963541666667,156.8773858267039L264.277734375,156.9999736021177L264.7591145833333,157.1196701232089" style="fill: none;" fill="none"></path></g></g></g></g><g opacity="0.2"><g><g><g><path stroke="rgb(255, 112, 67)" stroke-width="2px" d="M24.550390625000002,139.16129439671835L25.031770833333333,144.53507992426555L25.513151041666667,147.68536717096964L25.994531249999998,125.9414939880371L26.475911458333332,148.73147360483804L26.957291666666666,131.8798266728719L27.438671875,135.90324500401815L27.92005208333333,138.75089009602866L28.401432291666666,121.00053882598876L28.8828125,146.63363968531291L29.364192708333334,143.2062310218811L29.845572916666665,125.33743254343668L30.326953125,141.0014789581299L30.808333333333334,122.51028544108074L31.289713541666668,124.39106273651122L31.77109375,140.09221146901447L32.25247395833333,136.48791128794352L32.73385416666667,115.39234212239583L33.215234375,129.2055939356486L33.696614583333336,125.6352113723755L34.17799479166666,140.5902419090271L34.659375,127.41307671864828L35.14075520833334,135.95165506998697L35.622135416666666,140.51218112309775L36.103515625,124.33622137705485L36.584895833333334,133.3250371615092L37.06627604166666,141.92469685872396L37.54765625,143.70991064707437L38.02903645833333,138.2255158742269L38.510416666666664,130.55167547861734L38.991796875000006,141.44835726420087L39.47317708333333,147.64918293952942L39.95455729166667,148.97584212621052L40.4359375,103.66214294433594L40.917317708333336,102.20148722330728L41.39869791666667,119.90755653381346L41.880078125,140.37757034301757L42.36145833333333,138.75014737447103L42.84283854166667,146.85573499997457L43.32421875,99.76361624399821L43.805598958333334,145.27160088221234L44.28697916666666,144.42001528739928L44.768359375,146.94320734341937L45.24973958333334,149.53064200083415L45.731119791666664,133.75617764790854L46.2125,125.36992473602294L46.69388020833333,121.73550306955974L47.17526041666667,140.0631796836853L47.656640625,126.56104567845664L48.13802083333333,120.90204944610596L48.61940104166667,131.02456029256186L49.100781250000004,70.3022565205892L49.58216145833333,104.44834747314454L50.063541666666666,121.18168411254882L50.544921875,135.51501356760662L51.026302083333334,143.9525827248891L51.50768229166667,148.06752835909526L51.989062499999996,87.55044924418131L52.47044270833334,140.97576503753663L52.951822916666664,116.82994346618652L53.433203125,93.6637378692627L53.91458333333333,106.61253306070964L54.39596354166667,134.624426651001L54.87734375,129.17485726674397L55.358723958333336,97.20863157908123L55.84010416666666,89.51809120178221L56.321484375000004,121.823406791687L56.80286458333333,136.40564924875895L57.284244791666666,131.1795921643575L57.765625,137.23925291697185L58.247005208333334,122.18416315714519L58.72838541666667,125.47922108968099L59.209765624999996,142.43036270141602L59.69114583333333,60.818662516276035L60.17252604166667,112.68589477539062L60.65390625,95.58302790323891L61.13528645833333,118.61538232167563L61.61666666666667,122.33972956339517L62.098046875,128.19370708465576L62.579427083333336,118.70644823710123L63.06080729166666,126.72889512379966L63.5421875,136.1493146578471L64.02356770833333,135.8711391766866L64.50494791666667,121.7726541519165L64.986328125,123.09065106709798L65.46770833333333,131.67986952463787L65.94908854166667,134.8008286476135L66.43046875,95.58358306884764L66.91184895833334,95.69380594889323L67.39322916666667,80.4307804107666L67.87460937499999,134.02980114618936L68.35598958333333,16.160075632731115L68.83736979166667,118.82828458150227L69.31875,136.86864236195882L69.80013020833333,108.28644739786785L70.28151041666668,116.56722259521486L70.762890625,88.56113573710124L71.24427083333333,94.87413018544515L71.72565104166667,108.32983283996582L72.20703125,111.90469799041747L72.68841145833333,136.47840032577514L73.16979166666667,120.94197635650634L73.651171875,128.5532818476359L74.13255208333332,80.7163080851237L74.61393229166667,135.53802480697632L75.0953125,109.97301425933838L75.57669270833333,131.9202787399292L76.05807291666666,92.66043357849121L76.53945312500001,128.8764801343282L77.02083333333333,139.05339533487955L77.50221354166666,116.80116863250733L77.98359375000001,91.99068628946941L78.46497395833333,106.07512149810792L78.94635416666667,133.0707581837972L79.427734375,108.91308682759603L79.90911458333333,117.3664472579956L80.39049479166667,103.51051896413166L80.871875,113.80006713867188L81.35325520833334,141.7474489847819L81.83463541666667,97.80306765238443L82.31601562499999,119.42186915079753L82.79739583333334,121.38844203948973L83.27877604166666,118.37878424326578L83.76015625,136.68765649795532L84.24153645833334,104.25475972493489L84.72291666666666,98.35569750467936L85.204296875,110.69080588022867L85.68567708333335,130.39329010645548L86.16705729166667,137.7544240951538L86.6484375,91.43152198791505L87.12981770833333,106.8362272898356L87.61119791666667,119.40763740539552L88.092578125,68.67165260314941L88.57395833333332,93.80557518005371L89.05533854166667,122.277400970459L89.53671875,83.68710428873698L90.01809895833333,112.29579340616863L90.49947916666667,129.59933389027913L90.980859375,128.99300676981608L91.46223958333333,116.37579549153645L91.94361979166668,111.97858378092447L92.425,115.60455792744953L92.90638020833333,129.13397006988527L93.38776041666667,121.60203450520832L93.869140625,106.2675989151001L94.35052083333333,68.02507972717285L94.83190104166665,128.12274904251097L95.31328125,97.31879069010415L95.79466145833334,59.390453974405936L96.27604166666666,132.718394947052L96.757421875,110.95513598124185L97.23880208333334,126.16506630579632L97.72018229166666,130.29378229777018L98.20156250000001,129.30835208892822L98.68294270833333,129.08890787760416L99.16432291666666,110.63304615020753L99.645703125,103.58429222106935L100.12708333333333,121.64098612467448L100.60846354166667,120.49788138071696L101.08984375,137.44118502934774L101.57122395833333,121.58313636779786L102.05260416666667,112.65503431955973L102.53398437499999,122.36653130849201L103.01536458333334,114.07980308532716L103.49674479166667,118.83639074961344L103.97812499999999,101.11081186930339L104.45950520833334,97.08242518107096L104.94088541666667,92.90276336669923L105.422265625,133.86257813771567L105.90364583333333,131.79437618255616L106.38502604166668,122.75121231079102L106.86640625,99.99256579081217L107.34778645833333,115.44853013356527L107.82916666666667,120.57792275746662L108.310546875,126.8758095741272L108.79192708333333,113.91819737752279L109.27330729166667,138.67835658391317L109.7546875,129.2862279891968L110.23606770833332,132.78062413533527L110.71744791666667,109.31646340688071L111.198828125,120.12588666280111L111.68020833333333,131.00461184183757L112.16158854166666,127.87030061086018L112.64296875000001,145.48720488548278L113.12434895833333,137.24284273783366L113.60572916666666,135.40075448354085L114.08710937500001,138.32264359792075L114.56848958333333,135.07579129536947L115.04986979166667,98.25044485727946L115.53125,132.8380537668864L116.01263020833333,136.08847150802612L116.49401041666667,119.75695285797119L116.975390625,140.654399172465L117.45677083333334,112.26854902903239L117.93815104166667,138.15247783660888L118.41953124999999,137.3584297180176L118.90091145833334,141.61170161565144L119.38229166666666,133.76632630030315L119.863671875,127.70406227111816L120.34505208333334,136.9949612935384L120.82643229166666,134.63275225957236L121.3078125,115.42907683054607L121.78919270833335,144.0374283472697L122.27057291666667,122.40689334869386L122.751953125,111.85034052530925L123.23333333333333,131.58130887349446L123.71471354166667,116.80888093312582L124.19609375,140.93670276006063L124.67747395833332,138.3652713139852L125.15885416666667,141.79715131123862L125.640234375,80.15083440144858L126.12161458333333,103.86043459574381L126.60299479166667,111.37745946248371L127.084375,145.8231204032898L127.56575520833333,135.69907159805297L128.04713541666666,144.82653811772664L128.528515625,137.76888653437297L129.00989583333333,132.27301896413167L129.49127604166665,116.51199487050374L129.97265625,129.70208079020182L130.45403645833332,104.42433656056723L130.93541666666667,137.06462144851685L131.41679687500002,135.2304349263509L131.89817708333334,136.696182791392L132.37955729166666,140.44180450439453L132.8609375,141.08508014678955L133.34231770833333,136.37482255299886L133.82369791666667,131.06338062286378L134.305078125,125.80666376749674L134.78645833333334,138.43655195236207L135.26783854166666,97.4270892461141L135.74921874999998,132.03165884017943L136.23059895833333,111.42483609517416L136.71197916666665,138.14876797993978L137.193359375,135.94281180699667L137.67473958333335,139.16089115142822L138.15611979166667,144.7686799208323L138.6375,142.9179931640625L139.11888020833334,137.0502265294393L139.60026041666666,149.43675524393717L140.081640625,125.93923581441243L140.56302083333335,138.0870808283488L141.04440104166667,136.61159318288168L141.52578125,97.76305821736653L142.00716145833331,128.66138722101846L142.48854166666666,134.57669741312662L142.969921875,143.76767694155376L143.45130208333333,124.3506181716919L143.93268229166668,136.17715921401978L144.4140625,142.24093681971232L144.89544270833335,128.63594338099162L145.37682291666667,132.27651125590006L145.858203125,99.70813344319662L146.33958333333334,139.4950070699056L146.82096354166666,145.00574220021565L147.30234375,121.09885940551759L147.78372395833335,143.1332417488098L148.26510416666665,146.37140083312988L148.746484375,134.56366227467853L149.22786458333334,118.53024317423501L149.70924479166666,63.4161548614502L150.190625,132.73670603434243L150.67200520833333,137.15064398447672L151.15338541666665,140.24996852874756L151.634765625,118.24838409423828L152.11614583333332,134.08203547795614L152.59752604166667,135.46396646499633L153.07890625000002,133.4524382909139L153.5602864583333,137.31281236012777L154.04166666666666,138.63441410064698L154.523046875,143.48335337638855L155.00442708333333,129.38628158569335L155.48580729166667,132.31657320658368L155.96718750000002,134.77391812006633L156.44856770833331,136.3926253636678L156.92994791666666,143.60585554440814L157.411328125,142.38397542635602L157.89270833333333,147.9105355898539L158.37408854166668,139.50784902572633L158.85546875,148.13593095143636L159.33684895833332,141.996285088857L159.81822916666667,128.6521332105001L160.29960937500002,136.74233468373617L160.78098958333334,115.5931957880656L161.26236979166666,106.78425178527833L161.74375,145.39465258916218L162.22513020833333,131.7329909960429L162.70651041666667,116.34828853607179L163.187890625,138.23342323303223L163.66927083333334,141.73495213190714L164.15065104166666,146.80734462738036L164.63203124999998,133.4544713973999L165.11341145833333,142.7278376897176L165.59479166666668,134.93337256113688L166.076171875,140.18835264841715L166.55755208333332,141.33090597788492L167.03893229166667,113.16912517547608L167.5203125,140.19126726786294L168.00169270833334,135.67575089136758L168.48307291666669,142.0943083922068L168.96445312499998,143.83551874160767L169.44583333333333,137.14828265508015L169.92721354166667,142.161936378479L170.40859375,144.41933164596557L170.88997395833334,139.07973756790162L171.3713541666667,128.58384971618653L171.85273437499998,145.32987076441447L172.33411458333333,120.23811639149983L172.81549479166668,146.42602837880452L173.296875,140.88944991429648L173.77825520833335,142.42438154220582L174.25963541666667,117.7927844365438L174.741015625,146.64814995129905L175.22239583333334,143.60347639719646L175.70377604166666,133.0571341196696L176.18515625,143.15860025087994L176.66653645833335,139.45130090713502L177.14791666666665,144.70940755208332L177.629296875,141.55455706914267L178.11067708333334,137.1319390296936L178.59205729166666,147.95285290082296L179.0734375,130.0743755976359L179.55481770833333,146.16557318369547L180.03619791666665,141.2367397626241L180.517578125,132.1183790842692L180.99895833333335,133.5958885828654L181.48033854166667,136.19779974619547L181.96171875,120.47152226765951L182.44309895833334,143.60383931795755L182.92447916666666,148.97500562667847L183.405859375,138.56965103149415L183.88723958333335,144.77996985117596L184.36861979166665,142.26229662895201L184.85,136.8307185490926L185.33138020833334,141.6396230697632L185.81276041666666,143.03673389752706L186.294140625,141.05325377782185L186.77552083333333,129.44920097986858L187.25690104166665,139.3278140703837L187.73828125,140.6158658027649L188.21966145833332,140.5567763010661L188.70104166666667,143.22202885945637L189.18242187500002,147.2769153277079L189.6638020833333,146.85991280873617L190.14518229166666,148.14855159123738L190.6265625,148.16513810157775L191.10794270833333,139.5601302464803L191.58932291666667,141.69896389643353L192.07070312500002,143.96808797518412L192.55208333333331,143.73824097315472L193.03346354166666,135.47891279856364L193.51484375,142.47080726623534L193.99622395833333,133.68691698710126L194.47760416666668,142.60973558425903L194.958984375,152.63461230595908L195.44036458333332,133.75378443400066L195.92174479166667,142.72174212137858L196.40312500000002,146.1088356335958L196.88450520833334,134.34687010447183L197.36588541666666,152.44794631004333L197.847265625,144.13175961176555L198.32864583333333,147.76928720474243L198.81002604166667,132.11458295186358L199.29140625,138.5045503616333L199.77278645833334,141.5995104789734L200.25416666666666,139.0766560236613L200.73554687499998,144.046447912852L201.21692708333333,143.0969731171926L201.69830729166668,149.84998554388682L202.1796875,112.2491107304891L202.66106770833332,151.19300242265066L203.14244791666667,127.12315648396809L203.623828125,146.1401330947876L204.10520833333334,148.13860268592833L204.58658854166669,140.19927965799968L205.06796874999998,145.56847100257875L205.54934895833333,151.1319060722987L206.03072916666667,152.80294001897175L206.512109375,141.6592639287313L206.99348958333334,140.1444851875305L207.4748697916667,141.83266690572103L207.95624999999998,141.0984941482544L208.43763020833333,151.0477595647176L208.91901041666668,149.4200740178426L209.400390625,150.045050295194L209.88177083333335,146.97762104670207L210.36315104166667,149.51298735936484L210.84453125,143.80020945866903L211.32591145833334,144.50786368052167L211.80729166666666,147.85470956166586L212.288671875,145.02933580080668L212.77005208333335,152.66499074300128L213.25143229166665,143.77498693466185L213.7328125,145.47523975372314L214.21419270833334,139.04442640940348L214.69557291666666,150.75199133555094L215.176953125,147.20796882311504L215.65833333333333,152.059299437205L216.13971354166665,120.64497400919595L216.62109375,149.67432861328126L217.10247395833335,149.8998299439748L217.58385416666667,139.00347544352215L218.065234375,133.63051516215006L218.54661458333334,146.17443238894145L219.02799479166666,152.03631633122762L219.509375,140.6598026593526L219.99075520833335,150.51469461123148L220.47213541666665,144.1528108914693L220.953515625,152.0952698548635L221.43489583333334,141.10229403177897L221.91627604166666,153.12908668518065L222.39765625,147.78814595540365L222.87903645833333,148.51148173014323L223.36041666666665,148.26220111846925L223.841796875,145.7620634396871L224.32317708333332,152.69538793563842L224.80455729166667,151.39518539110819L225.28593750000002,142.62461252212523L225.7673177083333,151.8475492397944L226.24869791666666,147.70473794937135L226.730078125,151.73904484113058L227.21145833333333,147.7533149401347L227.69283854166667,149.80936373869577L228.17421875000002,145.56414127349854L228.65559895833331,154.6129618326823L229.13697916666666,153.48893715540567L229.618359375,150.91796522140504L230.09973958333333,138.7169874827067L230.58111979166668,145.15463911692302L231.0625,153.49404617945353L231.54388020833332,153.8449793020884L232.02526041666667,139.75428066253662L232.50664062500002,149.83582272529603L232.98802083333334,153.97602112690606L233.46940104166666,152.1627182563146L233.95078125,147.50729592641193L234.43216145833333,151.83586825529736L234.91354166666667,152.06879398822784L235.394921875,150.05278041362763L235.87630208333334,154.76311162312825L236.35768229166666,154.34242362976073L236.83906249999998,156.03901090224585L237.32044270833333,153.13757452964782L237.80182291666668,147.34075093269348L238.283203125,150.73234297434487L238.76458333333332,151.27869251569112L239.24596354166667,155.4019580145677L239.72734375,155.48670939008394L240.20872395833334,152.17336580753326L240.69010416666669,154.8138131539027L241.17148437499998,152.90410488446554L241.65286458333333,154.99290282726287L242.13424479166667,153.6746644337972L242.615625,151.96223735809326L243.09700520833334,154.59852424462636L243.5783854166667,153.01507283051808L244.05976562499998,153.01986722946168L244.54114583333333,148.399165725708L245.02252604166668,150.63386062781018L245.50390625,155.24666508833567L245.98528645833335,153.61208920478822L246.46666666666667,154.72314696709316L246.948046875,154.27799558242162L247.42942708333334,154.36172360579172L247.91080729166666,153.68143379688263L248.3921875,150.5746721903483L248.87356770833335,155.0593074798584L249.35494791666665,155.04546139637628L249.836328125,155.09279137452444L250.31770833333334,153.1728678703308L250.79908854166666,155.5812919795513L251.28046875,154.1303100426992L251.76184895833333,155.93711257576942L252.24322916666665,153.68046225706735L252.724609375,153.99587415854137L253.20598958333335,155.46068189938862L253.68736979166667,155.09097723960878L254.16875,153.78542137940724L254.65013020833334,152.77178228696187L255.13151041666666,155.63665603399278L255.612890625,156.26712899009385L256.0942708333333,156.0598761498928L256.5756510416667,156.02778075536094L257.05703125,155.53994913895926L257.53841145833337,155.43663417895635L258.01979166666666,156.33071174621583L258.501171875,155.20317555268605L258.9825520833333,156.42378908197085L259.46393229166665,156.5257762044668L259.9453125,156.4257407774528L260.4266927083333,156.2266805569331L260.90807291666664,156.545977328221L261.389453125,156.45978065828484L261.87083333333334,156.53764046629271L262.3522135416667,156.91211391190689L262.83359375000003,157.00214404960474L263.3149739583333,156.9235662246744L263.7963541666667,156.87650409986574L264.277734375,157.13492317001024L264.7591145833333,157.25143688172102" style="fill: none;" fill="none"></path></g></g></g></g></g></g><g transform="translate(41, 177)" clip-path="url(#clip_1)"><clipPath id="clip_1"><rect width="288" height="23"></rect></clipPath><g><g><line x1="0" y1="0" x2="0" y2="5" style="visibility: inherit;" fill="rgb(0, 0, 0)" stroke="rgb(204, 204, 204)" stroke-width="1px"></line><line x1="24.069010416666664" y1="0" x2="24.069010416666664" y2="5" style="visibility: inherit;" fill="rgb(0, 0, 0)" stroke="rgb(204, 204, 204)" stroke-width="1px"></line><line x1="48.13802083333333" y1="0" x2="48.13802083333333" y2="5" style="visibility: inherit;" fill="rgb(0, 0, 0)" stroke="rgb(204, 204, 204)" stroke-width="1px"></line><line x1="72.20703125" y1="0" x2="72.20703125" y2="5" style="visibility: inherit;" fill="rgb(0, 0, 0)" stroke="rgb(204, 204, 204)" stroke-width="1px"></line><line x1="96.27604166666666" y1="0" x2="96.27604166666666" y2="5" style="visibility: inherit;" fill="rgb(0, 0, 0)" stroke="rgb(204, 204, 204)" stroke-width="1px"></line><line x1="120.34505208333334" y1="0" x2="120.34505208333334" y2="5" style="visibility: inherit;" fill="rgb(0, 0, 0)" stroke="rgb(204, 204, 204)" stroke-width="1px"></line><line x1="144.4140625" y1="0" x2="144.4140625" y2="5" style="visibility: inherit;" fill="rgb(0, 0, 0)" stroke="rgb(204, 204, 204)" stroke-width="1px"></line><line x1="168.48307291666669" y1="0" x2="168.48307291666669" y2="5" style="visibility: inherit;" fill="rgb(0, 0, 0)" stroke="rgb(204, 204, 204)" stroke-width="1px"></line><line x1="192.55208333333331" y1="0" x2="192.55208333333331" y2="5" style="visibility: inherit;" fill="rgb(0, 0, 0)" stroke="rgb(204, 204, 204)" stroke-width="1px"></line><line x1="216.62109375" y1="0" x2="216.62109375" y2="5" style="visibility: inherit;" fill="rgb(0, 0, 0)" stroke="rgb(204, 204, 204)" stroke-width="1px"></line><line x1="240.69010416666669" y1="0" x2="240.69010416666669" y2="5" style="visibility: inherit;" fill="rgb(0, 0, 0)" stroke="rgb(204, 204, 204)" stroke-width="1px"></line><line x1="264.7591145833333" y1="0" x2="264.7591145833333" y2="5" style="visibility: inherit;" fill="rgb(0, 0, 0)" stroke="rgb(204, 204, 204)" stroke-width="1px"></line><line x1="288.828125" y1="0" x2="288.828125" y2="5" style="visibility: inherit;" fill="rgb(0, 0, 0)" stroke="rgb(204, 204, 204)" stroke-width="1px"></line></g><g transform="translate(0, 8)"><text x="0" y="0" dx="0em" dy="0.95em" style="text-anchor: middle; visibility: hidden; font-family: Roboto, sans-serif; font-size: 12px; font-weight: 200;" fill="rgb(255, 255, 255)" stroke="none" stroke-width="1px">-50</text><text x="24.069010416666664" y="0" dx="0em" dy="0.95em" style="text-anchor: middle; visibility: inherit; font-family: Roboto, sans-serif; font-size: 12px; font-weight: 200;" fill="rgb(255, 255, 255)" stroke="none" stroke-width="1px">0</text><text x="48.13802083333333" y="0" dx="0em" dy="0.95em" style="text-anchor: middle; visibility: hidden; font-family: Roboto, sans-serif; font-size: 12px; font-weight: 200;" fill="rgb(255, 255, 255)" stroke="none" stroke-width="1px">50</text><text x="72.20703125" y="0" dx="0em" dy="0.95em" style="text-anchor: middle; visibility: inherit; font-family: Roboto, sans-serif; font-size: 12px; font-weight: 200;" fill="rgb(255, 255, 255)" stroke="none" stroke-width="1px">100</text><text x="96.27604166666666" y="0" dx="0em" dy="0.95em" style="text-anchor: middle; visibility: hidden; font-family: Roboto, sans-serif; font-size: 12px; font-weight: 200;" fill="rgb(255, 255, 255)" stroke="none" stroke-width="1px">150</text><text x="120.34505208333334" y="0" dx="0em" dy="0.95em" style="text-anchor: middle; visibility: inherit; font-family: Roboto, sans-serif; font-size: 12px; font-weight: 200;" fill="rgb(255, 255, 255)" stroke="none" stroke-width="1px">200</text><text x="144.4140625" y="0" dx="0em" dy="0.95em" style="text-anchor: middle; visibility: hidden; font-family: Roboto, sans-serif; font-size: 12px; font-weight: 200;" fill="rgb(255, 255, 255)" stroke="none" stroke-width="1px">250</text><text x="168.48307291666669" y="0" dx="0em" dy="0.95em" style="text-anchor: middle; visibility: inherit; font-family: Roboto, sans-serif; font-size: 12px; font-weight: 200;" fill="rgb(255, 255, 255)" stroke="none" stroke-width="1px">300</text><text x="192.55208333333331" y="0" dx="0em" dy="0.95em" style="text-anchor: middle; visibility: hidden; font-family: Roboto, sans-serif; font-size: 12px; font-weight: 200;" fill="rgb(255, 255, 255)" stroke="none" stroke-width="1px">350</text><text x="216.62109375" y="0" dx="0em" dy="0.95em" style="text-anchor: middle; visibility: inherit; font-family: Roboto, sans-serif; font-size: 12px; font-weight: 200;" fill="rgb(255, 255, 255)" stroke="none" stroke-width="1px">400</text><text x="240.69010416666669" y="0" dx="0em" dy="0.95em" style="text-anchor: middle; visibility: hidden; font-family: Roboto, sans-serif; font-size: 12px; font-weight: 200;" fill="rgb(255, 255, 255)" stroke="none" stroke-width="1px">450</text><text x="264.7591145833333" y="0" dx="0em" dy="0.95em" style="text-anchor: middle; visibility: inherit; font-family: Roboto, sans-serif; font-size: 12px; font-weight: 200;" fill="rgb(255, 255, 255)" stroke="none" stroke-width="1px">500</text><text x="288.828125" y="0" dx="0em" dy="0.95em" style="text-anchor: middle; visibility: hidden; font-family: Roboto, sans-serif; font-size: 12px; font-weight: 200;" fill="rgb(255, 255, 255)" stroke="none" stroke-width="1px">550</text></g><line x1="0" y1="0" x2="288.828125" y2="0" fill="rgb(0, 0, 0)" stroke="rgb(204, 204, 204)" stroke-width="1px"></line></g></g></g></g></svg>