<svg viewBox="0 0 330 200" xmlns="http://www.w3.org/2000/svg"><g><g><g><g><g><line x1="41.171875" y1="177" x2="36.171875" y2="177" style="visibility: inherit;" fill="rgb(0, 0, 0)" stroke="rgb(204, 204, 204)" stroke-width="1px"></line><line x1="41.171875" y1="154.875" x2="36.171875" y2="154.875" style="visibility: inherit;" fill="rgb(0, 0, 0)" stroke="rgb(204, 204, 204)" stroke-width="1px"></line><line x1="41.171875" y1="132.75" x2="36.171875" y2="132.75" style="visibility: inherit;" fill="rgb(0, 0, 0)" stroke="rgb(204, 204, 204)" stroke-width="1px"></line><line x1="41.171875" y1="110.625" x2="36.171875" y2="110.625" style="visibility: inherit;" fill="rgb(0, 0, 0)" stroke="rgb(204, 204, 204)" stroke-width="1px"></line><line x1="41.171875" y1="88.5" x2="36.171875" y2="88.5" style="visibility: inherit;" fill="rgb(0, 0, 0)" stroke="rgb(204, 204, 204)" stroke-width="1px"></line><line x1="41.171875" y1="66.375" x2="36.171875" y2="66.375" style="visibility: inherit;" fill="rgb(0, 0, 0)" stroke="rgb(204, 204, 204)" stroke-width="1px"></line><line x1="41.171875" y1="44.25" x2="36.171875" y2="44.25" style="visibility: inherit;" fill="rgb(0, 0, 0)" stroke="rgb(204, 204, 204)" stroke-width="1px"></line><line x1="41.171875" y1="22.125" x2="36.171875" y2="22.125" style="visibility: inherit;" fill="rgb(0, 0, 0)" stroke="rgb(204, 204, 204)" stroke-width="1px"></line><line x1="41.171875" y1="0" x2="36.171875" y2="0" style="visibility: inherit;" fill="rgb(0, 0, 0)" stroke="rgb(204, 204, 204)" stroke-width="1px"></line></g><g transform="translate(31.171875, 0)"><text x="0" y="177" dx="0em" dy="0.3em" style="text-anchor: end; visibility: hidden; font-family: Roboto, sans-serif; font-size: 12px; font-weight: 200;" fill="rgb(255, 255, 255)" stroke="none" stroke-width="1px">-50</text><text x="0" y="154.875" dx="0em" dy="0.3em" style="text-anchor: end; visibility: inherit; font-family: Roboto, sans-serif; font-size: 12px; font-weight: 200;" fill="rgb(255, 255, 255)" stroke="none" stroke-width="1px">0</text><text x="0" y="132.75" dx="0em" dy="0.3em" style="text-anchor: end; visibility: hidden; font-family: Roboto, sans-serif; font-size: 12px; font-weight: 200;" fill="rgb(255, 255, 255)" stroke="none" stroke-width="1px">50</text><text x="0" y="110.625" dx="0em" dy="0.3em" style="text-anchor: end; visibility: inherit; font-family: Roboto, sans-serif; font-size: 12px; font-weight: 200;" fill="rgb(255, 255, 255)" stroke="none" stroke-width="1px">100</text><text x="0" y="88.5" dx="0em" dy="0.3em" style="text-anchor: end; visibility: hidden; font-family: Roboto, sans-serif; font-size: 12px; font-weight: 200;" fill="rgb(255, 255, 255)" stroke="none" stroke-width="1px">150</text><text x="0" y="66.375" dx="0em" dy="0.3em" style="text-anchor: end; visibility: inherit; font-family: Roboto, sans-serif; font-size: 12px; font-weight: 200;" fill="rgb(255, 255, 255)" stroke="none" stroke-width="1px">200</text><text x="0" y="44.25" dx="0em" dy="0.3em" style="text-anchor: end; visibility: hidden; font-family: Roboto, sans-serif; font-size: 12px; font-weight: 200;" fill="rgb(255, 255, 255)" stroke="none" stroke-width="1px">250</text><text x="0" y="22.125" dx="0em" dy="0.3em" style="text-anchor: end; visibility: inherit; font-family: Roboto, sans-serif; font-size: 12px; font-weight: 200;" fill="rgb(255, 255, 255)" stroke="none" stroke-width="1px">300</text><text x="0" y="0" dx="0em" dy="0.3em" style="text-anchor: end; visibility: hidden; font-family: Roboto, sans-serif; font-size: 12px; font-weight: 200;" fill="rgb(255, 255, 255)" stroke="none" stroke-width="1px">350</text></g><line x1="41.171875" y1="0" x2="41.171875" y2="177" fill="rgb(0, 0, 0)" stroke="rgb(204, 204, 204)" stroke-width="1px"></line></g></g><g transform="translate(41, 0)" clip-path="url(#clip_0)"><clipPath id="clip_0"><rect width="288" height="177"></rect></clipPath><g><g><g><line x1="0" y1="0" x2="0" y2="177" fill="rgb(0, 0, 0)" stroke="rgb(189, 189, 189)" stroke-width="1px" opacity="0.25"></line><line x1="24.069010416666664" y1="0" x2="24.069010416666664" y2="177" fill="rgb(0, 0, 0)" stroke="rgb(189, 189, 189)" stroke-width="1px" opacity="0.25"></line><line x1="48.13802083333333" y1="0" x2="48.13802083333333" y2="177" fill="rgb(0, 0, 0)" stroke="rgb(189, 189, 189)" stroke-width="1px" opacity="0.25"></line><line x1="72.20703125" y1="0" x2="72.20703125" y2="177" fill="rgb(0, 0, 0)" stroke="rgb(189, 189, 189)" stroke-width="1px" opacity="0.25"></line><line x1="96.27604166666666" y1="0" x2="96.27604166666666" y2="177" fill="rgb(0, 0, 0)" stroke="rgb(189, 189, 189)" stroke-width="1px" opacity="0.25"></line><line x1="120.34505208333334" y1="0" x2="120.34505208333334" y2="177" fill="rgb(0, 0, 0)" stroke="rgb(189, 189, 189)" stroke-width="1px" opacity="0.25"></line><line x1="144.4140625" y1="0" x2="144.4140625" y2="177" fill="rgb(0, 0, 0)" stroke="rgb(189, 189, 189)" stroke-width="1px" opacity="0.25"></line><line x1="168.48307291666669" y1="0" x2="168.48307291666669" y2="177" fill="rgb(0, 0, 0)" stroke="rgb(189, 189, 189)" stroke-width="1px" opacity="0.25"></line><line x1="192.55208333333331" y1="0" x2="192.55208333333331" y2="177" fill="rgb(0, 0, 0)" stroke="rgb(189, 189, 189)" stroke-width="1px" opacity="0.25"></line><line x1="216.62109375" y1="0" x2="216.62109375" y2="177" fill="rgb(0, 0, 0)" stroke="rgb(189, 189, 189)" stroke-width="1px" opacity="0.25"></line><line x1="240.69010416666669" y1="0" x2="240.69010416666669" y2="177" fill="rgb(0, 0, 0)" stroke="rgb(189, 189, 189)" stroke-width="1px" opacity="0.25"></line><line x1="264.7591145833333" y1="0" x2="264.7591145833333" y2="177" fill="rgb(0, 0, 0)" stroke="rgb(189, 189, 189)" stroke-width="1px" opacity="0.25"></line><line x1="288.828125" y1="0" x2="288.828125" y2="177" fill="rgb(0, 0, 0)" stroke="rgb(189, 189, 189)" stroke-width="1px" opacity="0.25"></line></g><g><line x1="0" y1="177" x2="288.828125" y2="177" fill="rgb(0, 0, 0)" stroke="rgb(189, 189, 189)" stroke-width="1px" opacity="0.25"></line><line x1="0" y1="154.875" x2="288.828125" y2="154.875" fill="rgb(0, 0, 0)" stroke="rgb(189, 189, 189)" stroke-width="1px" opacity="0.25"></line><line x1="0" y1="132.75" x2="288.828125" y2="132.75" fill="rgb(0, 0, 0)" stroke="rgb(189, 189, 189)" stroke-width="1px" opacity="0.25"></line><line x1="0" y1="110.625" x2="288.828125" y2="110.625" fill="rgb(0, 0, 0)" stroke="rgb(189, 189, 189)" stroke-width="1px" opacity="0.25"></line><line x1="0" y1="88.5" x2="288.828125" y2="88.5" fill="rgb(0, 0, 0)" stroke="rgb(189, 189, 189)" stroke-width="1px" opacity="0.25"></line><line x1="0" y1="66.375" x2="288.828125" y2="66.375" fill="rgb(0, 0, 0)" stroke="rgb(189, 189, 189)" stroke-width="1px" opacity="0.25"></line><line x1="0" y1="44.25" x2="288.828125" y2="44.25" fill="rgb(0, 0, 0)" stroke="rgb(189, 189, 189)" stroke-width="1px" opacity="0.25"></line><line x1="0" y1="22.125" x2="288.828125" y2="22.125" fill="rgb(0, 0, 0)" stroke="rgb(189, 189, 189)" stroke-width="1px" opacity="0.25"></line><line x1="0" y1="0" x2="288.828125" y2="0" fill="rgb(0, 0, 0)" stroke="rgb(189, 189, 189)" stroke-width="1px" opacity="0.25"></line></g></g></g><g><g><line x1="0" y1="154.875" x2="288.828125" y2="154.875" fill="rgb(0, 0, 0)" stroke="rgb(153, 153, 153)" stroke-width="1.5px"></line></g></g><g><g><line x1="24.069010416666664" y1="0" x2="24.069010416666664" y2="177" fill="rgb(0, 0, 0)" stroke="rgb(153, 153, 153)" stroke-width="1.5px"></line></g></g><g><g><g><g><g><path stroke="rgb(255, 112, 67)" stroke-width="2px" d="M26.475911458333332,154.33112647265196L28.8828125,151.8548286368692L31.289713541666668,148.20237964195582L33.696614583333336,146.02006840796884L36.103515625,142.97036878055357L38.510416666666664,140.98422384147779L40.917317708333336,137.08774194051313L43.32421875,136.02928686654226L45.731119791666664,136.54561779841632L48.13802083333333,132.75572696605013L50.544921875,136.55834882559108L52.951822916666664,134.64388992183322L55.358723958333336,131.42324903687475L57.765625,128.75574976361688L60.17252604166667,120.69911916527947L62.579427083333336,110.4021790285864L64.986328125,110.4999080634435L67.39322916666667,108.83779973282593L69.80013020833333,104.9050254278328L72.20703125,106.92075569493437L74.61393229166667,99.26706389279752L77.02083333333333,96.38973730300268L79.427734375,103.3365386533903L81.83463541666667,86.66232786239246L84.24153645833334,79.44441384412856L86.6484375,74.89747873742701L89.05533854166667,67.13495888143923L91.46223958333333,71.23187919174616L93.869140625,78.89758860508267L96.27604166666666,82.35807118144515L98.68294270833333,67.67826623013302L101.08984375,64.64265686168125L103.49674479166667,79.35360125309687L105.90364583333333,64.53964851233813L108.310546875,61.3828815688925L110.71744791666667,60.4656867881884L113.12434895833333,54.81745209723681L115.53125,55.25620744946815L117.93815104166667,50.921088608318406L120.34505208333334,47.82070600920113L122.751953125,43.02424643257115L125.15885416666667,54.04035982962934L127.56575520833333,61.35357185578573L129.97265625,63.70822848272453L132.37955729166666,66.82581155435511L134.78645833333334,50.33953709316414L137.193359375,51.69310055266283L139.60026041666666,45.15525080959023L142.00716145833331,59.66345194287178L144.4140625,57.71236946992027L146.82096354166666,58.599807244633254L149.22786458333334,53.87718026388799L151.634765625,56.208375514002405L154.04166666666666,58.570963954731546L156.44856770833331,42.77723195950832L158.85546875,42.64341162441907L161.26236979166666,52.05616180877982L163.66927083333334,46.11125914516146L166.076171875,46.45362018528362L168.48307291666669,46.23175140763061L170.88997395833334,54.42925457674029L173.296875,59.734867757739494L175.70377604166666,33.02994267435483L178.11067708333334,45.87186075375086L180.517578125,38.3113313838424L182.92447916666666,43.374609402030394L185.33138020833334,49.83591930173107L187.73828125,52.31910822365908L190.14518229166666,53.3923556230157L192.55208333333331,62.505307362817646L194.958984375,57.788211563334976L197.36588541666666,53.87142537520925L199.77278645833334,55.780767077121105L202.1796875,60.92639792100669L204.58658854166669,53.66051949257163L206.99348958333334,29.036018830318476L209.400390625,36.22936880177927L211.80729166666666,38.98352960705176L214.21419270833334,37.22950870965176L216.62109375,37.330332281875094L219.02799479166666,38.90842508890812L221.43489583333334,28.788627962225064L223.841796875,27.365211741903185L226.24869791666666,36.49066880554048L228.65559895833331,28.71581218841718L231.0625,33.49301683581506L233.46940104166666,40.01533711759087L235.87630208333334,36.99825366286227L238.283203125,47.43039834432762L240.69010416666669,42.739022712225044L243.09700520833334,39.104567968344575L245.50390625,47.00212861144528L247.91080729166666,34.60556471795885L250.31770833333334,48.13452800632665L252.724609375,54.012797604666964L255.13151041666666,53.2494761842559L257.53841145833337,61.572080148235635L259.9453125,49.791203262140804L262.3522135416667,47.32338073564963L264.7591145833333,42.74121455723822" style="fill: none;" fill="none"></path></g></g></g></g><g opacity="0.2"><g><g><g><path stroke="rgb(255, 112, 67)" stroke-width="2px" d="M26.475911458333332,154.33112647265196L28.8828125,150.55724857091903L31.289713541666668,145.28562153339385L33.696614583333336,143.96334084033967L36.103515625,139.86624481201173L38.510416666666664,138.88417110443115L40.917317708333336,132.88713171958923L43.32421875,134.8767359161377L45.731119791666664,137.11078496932984L48.13802083333333,128.59608830451967L50.544921875,140.7378952360153L52.951822916666664,132.53809985160825L55.358723958333336,127.87935693740846L57.765625,125.81991834640503L60.17252604166667,111.83109878540039L62.579427083333336,99.06759086608888L64.986328125,110.60748865127563L67.39322916666667,107.0081148147583L69.80013020833333,100.57570724487304L72.20703125,109.13974256515503L74.61393229166667,90.84159175872801L77.02083333333333,93.22226417541503L79.427734375,110.9838526725769L81.83463541666667,68.30669048309326L84.24153645833334,71.49864440917969L86.6484375,69.89202964782714L89.05533854166667,58.589664344787586L91.46223958333333,75.74193420410155L93.869140625,87.33631061553955L96.27604166666666,86.16750995635985L98.68294270833333,51.518144874572755L101.08984375,61.30093563079833L103.49674479166667,95.54800220489501L105.90364583333333,48.23185180664063L108.310546875,57.907785186767576L110.71744791666667,59.45600177764893L113.12434895833333,48.599647521972656L115.53125,55.73920703887939L117.93815104166667,46.14881492614746L120.34505208333334,44.40767978668213L122.751953125,37.744110260009755L125.15885416666667,66.1673418045044L127.56575520833333,69.40425064086914L129.97265625,66.30032947540283L132.37955729166666,70.2577727508545L134.78645833333334,32.19078117370606L137.193359375,53.18315780639647L139.60026041666666,37.95812210083009L142.00716145833331,75.63466495513916L144.4140625,55.564539184570314L146.82096354166666,59.57673454284668L149.22786458333334,48.678321990966786L151.634765625,58.77464927673339L154.04166666666666,61.171796607971196L156.44856770833331,25.390854721069328L158.85546875,42.49609680175781L161.26236979166666,62.41809688568116L163.66927083333334,39.56687049865723L166.076171875,46.83050502777099L168.48307291666669,45.98750930786133L170.88997395833334,63.453396720886225L173.296875,65.57550075531006L175.70377604166666,3.6320839691162172L178.11067708333334,60.00876216888428L180.517578125,29.98839569091797L182.92447916666666,48.94847007751464L185.33138020833334,56.94878986358643L187.73828125,55.05270275115968L190.14518229166666,54.573829650878906L192.55208333333331,72.53721221923828L194.958984375,52.595442237854L197.36588541666666,49.559669151306146L199.77278645833334,57.88264743804931L202.1796875,66.59091590881347L204.58658854166669,45.66194744110107L206.99348958333334,1.928375244140625L209.400390625,44.148098602294915L211.80729166666666,42.01542091369629L214.21419270833334,35.298611755371105L216.62109375,37.44132293701171L219.02799479166666,40.64565330505371L221.43489583333334,17.6483470916748L223.841796875,25.79825775146484L226.24869791666666,46.53634002685547L228.65559895833331,20.156936416625978L231.0625,38.751956405639646L233.46940104166666,47.19537036895751L235.87630208333334,33.676926498413074L238.283203125,58.91452400207519L240.69010416666669,37.57456718444825L243.09700520833334,35.10361358642578L245.50390625,55.69608192443848L247.91080729166666,20.958927154541016L250.31770833333334,63.027756500244145L252.724609375,60.48383388519288L255.13151041666666,52.409181175231936L257.53841145833337,70.73393829345704L259.9453125,36.82233879089355L262.3522135416667,44.6067021560669L264.7591145833333,37.69698120117187" style="fill: none;" fill="none"></path></g></g></g></g></g></g><g transform="translate(41, 177)" clip-path="url(#clip_1)"><clipPath id="clip_1"><rect width="288" height="23"></rect></clipPath><g><g><line x1="0" y1="0" x2="0" y2="5" style="visibility: inherit;" fill="rgb(0, 0, 0)" stroke="rgb(204, 204, 204)" stroke-width="1px"></line><line x1="24.069010416666664" y1="0" x2="24.069010416666664" y2="5" style="visibility: inherit;" fill="rgb(0, 0, 0)" stroke="rgb(204, 204, 204)" stroke-width="1px"></line><line x1="48.13802083333333" y1="0" x2="48.13802083333333" y2="5" style="visibility: inherit;" fill="rgb(0, 0, 0)" stroke="rgb(204, 204, 204)" stroke-width="1px"></line><line x1="72.20703125" y1="0" x2="72.20703125" y2="5" style="visibility: inherit;" fill="rgb(0, 0, 0)" stroke="rgb(204, 204, 204)" stroke-width="1px"></line><line x1="96.27604166666666" y1="0" x2="96.27604166666666" y2="5" style="visibility: inherit;" fill="rgb(0, 0, 0)" stroke="rgb(204, 204, 204)" stroke-width="1px"></line><line x1="120.34505208333334" y1="0" x2="120.34505208333334" y2="5" style="visibility: inherit;" fill="rgb(0, 0, 0)" stroke="rgb(204, 204, 204)" stroke-width="1px"></line><line x1="144.4140625" y1="0" x2="144.4140625" y2="5" style="visibility: inherit;" fill="rgb(0, 0, 0)" stroke="rgb(204, 204, 204)" stroke-width="1px"></line><line x1="168.48307291666669" y1="0" x2="168.48307291666669" y2="5" style="visibility: inherit;" fill="rgb(0, 0, 0)" stroke="rgb(204, 204, 204)" stroke-width="1px"></line><line x1="192.55208333333331" y1="0" x2="192.55208333333331" y2="5" style="visibility: inherit;" fill="rgb(0, 0, 0)" stroke="rgb(204, 204, 204)" stroke-width="1px"></line><line x1="216.62109375" y1="0" x2="216.62109375" y2="5" style="visibility: inherit;" fill="rgb(0, 0, 0)" stroke="rgb(204, 204, 204)" stroke-width="1px"></line><line x1="240.69010416666669" y1="0" x2="240.69010416666669" y2="5" style="visibility: inherit;" fill="rgb(0, 0, 0)" stroke="rgb(204, 204, 204)" stroke-width="1px"></line><line x1="264.7591145833333" y1="0" x2="264.7591145833333" y2="5" style="visibility: inherit;" fill="rgb(0, 0, 0)" stroke="rgb(204, 204, 204)" stroke-width="1px"></line><line x1="288.828125" y1="0" x2="288.828125" y2="5" style="visibility: inherit;" fill="rgb(0, 0, 0)" stroke="rgb(204, 204, 204)" stroke-width="1px"></line></g><g transform="translate(0, 8)"><text x="0" y="0" dx="0em" dy="0.95em" style="text-anchor: middle; visibility: hidden; font-family: Roboto, sans-serif; font-size: 12px; font-weight: 200;" fill="rgb(255, 255, 255)" stroke="none" stroke-width="1px">-50</text><text x="24.069010416666664" y="0" dx="0em" dy="0.95em" style="text-anchor: middle; visibility: inherit; font-family: Roboto, sans-serif; font-size: 12px; font-weight: 200;" fill="rgb(255, 255, 255)" stroke="none" stroke-width="1px">0</text><text x="48.13802083333333" y="0" dx="0em" dy="0.95em" style="text-anchor: middle; visibility: hidden; font-family: Roboto, sans-serif; font-size: 12px; font-weight: 200;" fill="rgb(255, 255, 255)" stroke="none" stroke-width="1px">50</text><text x="72.20703125" y="0" dx="0em" dy="0.95em" style="text-anchor: middle; visibility: inherit; font-family: Roboto, sans-serif; font-size: 12px; font-weight: 200;" fill="rgb(255, 255, 255)" stroke="none" stroke-width="1px">100</text><text x="96.27604166666666" y="0" dx="0em" dy="0.95em" style="text-anchor: middle; visibility: hidden; font-family: Roboto, sans-serif; font-size: 12px; font-weight: 200;" fill="rgb(255, 255, 255)" stroke="none" stroke-width="1px">150</text><text x="120.34505208333334" y="0" dx="0em" dy="0.95em" style="text-anchor: middle; visibility: inherit; font-family: Roboto, sans-serif; font-size: 12px; font-weight: 200;" fill="rgb(255, 255, 255)" stroke="none" stroke-width="1px">200</text><text x="144.4140625" y="0" dx="0em" dy="0.95em" style="text-anchor: middle; visibility: hidden; font-family: Roboto, sans-serif; font-size: 12px; font-weight: 200;" fill="rgb(255, 255, 255)" stroke="none" stroke-width="1px">250</text><text x="168.48307291666669" y="0" dx="0em" dy="0.95em" style="text-anchor: middle; visibility: inherit; font-family: Roboto, sans-serif; font-size: 12px; font-weight: 200;" fill="rgb(255, 255, 255)" stroke="none" stroke-width="1px">300</text><text x="192.55208333333331" y="0" dx="0em" dy="0.95em" style="text-anchor: middle; visibility: hidden; font-family: Roboto, sans-serif; font-size: 12px; font-weight: 200;" fill="rgb(255, 255, 255)" stroke="none" stroke-width="1px">350</text><text x="216.62109375" y="0" dx="0em" dy="0.95em" style="text-anchor: middle; visibility: inherit; font-family: Roboto, sans-serif; font-size: 12px; font-weight: 200;" fill="rgb(255, 255, 255)" stroke="none" stroke-width="1px">400</text><text x="240.69010416666669" y="0" dx="0em" dy="0.95em" style="text-anchor: middle; visibility: hidden; font-family: Roboto, sans-serif; font-size: 12px; font-weight: 200;" fill="rgb(255, 255, 255)" stroke="none" stroke-width="1px">450</text><text x="264.7591145833333" y="0" dx="0em" dy="0.95em" style="text-anchor: middle; visibility: inherit; font-family: Roboto, sans-serif; font-size: 12px; font-weight: 200;" fill="rgb(255, 255, 255)" stroke="none" stroke-width="1px">500</text><text x="288.828125" y="0" dx="0em" dy="0.95em" style="text-anchor: middle; visibility: hidden; font-family: Roboto, sans-serif; font-size: 12px; font-weight: 200;" fill="rgb(255, 255, 255)" stroke="none" stroke-width="1px">550</text></g><line x1="0" y1="0" x2="288.828125" y2="0" fill="rgb(0, 0, 0)" stroke="rgb(204, 204, 204)" stroke-width="1px"></line></g></g></g></g></svg>